<?xml version="1.0" standalone="no"?>
<!DOCTYPE svg PUBLIC "-//W3C//DTD SVG 20010904//EN"
 "http://www.w3.org/TR/2001/REC-SVG-20010904/DTD/svg10.dtd">
<svg version="1.0" xmlns="http://www.w3.org/2000/svg"
 width="800.000000pt" height="800.000000pt" viewBox="0 0 800.000000 800.000000"
 preserveAspectRatio="xMidYMid meet">

<g transform="translate(0.000000,800.000000) scale(0.100000,-0.100000)"
fill="#000000" stroke="none">
<path d="M3606 6453 c-1 -1 -61 -3 -133 -4 l-131 -1 -67 -141 c-140 -294 -481
-1064 -518 -1169 -6 -16 -24 -18 -185 -18 -99 0 -213 -3 -253 -6 l-75 -7 -44
-186 c-69 -298 -96 -436 -142 -736 -21 -136 -22 -171 -24 -1130 -1 -661 2
-1012 9 -1055 11 -72 12 -163 4 -345 -12 -247 -10 -468 5 -476 43 -24 268 -50
598 -69 574 -32 1987 -38 2500 -11 482 26 720 49 781 74 l30 12 3 2095 c2
1311 0 2099 -6 2107 -6 7 -6 33 0 70 5 32 8 110 6 173 -2 63 -3 131 -2 150 1
19 1 71 1 115 -2 120 -2 279 -2 379 1 70 -2 91 -14 98 -55 30 -506 60 -1112
74 -263 6 -1224 11 -1229 7z m-196 -31 c0 -2 -5 -12 -11 -23 -10 -20 -11 -20
-24 -2 -20 25 -19 28 10 28 14 0 25 -1 25 -3z m90 -4 c0 -7 -4 -19 -9 -27 -7
-11 -11 -10 -20 7 -15 28 -14 32 9 32 11 0 20 -6 20 -12z m100 1 c0 -5 -4 -9
-10 -9 -5 0 -10 -8 -10 -17 -1 -16 -2 -16 -15 1 -21 27 -19 34 10 34 14 0 25
-4 25 -9z m90 -4 c0 -5 -4 -16 -9 -23 -6 -10 -12 -7 -24 11 -16 24 -15 25 8
23 14 0 25 -5 25 -11z m100 7 c0 -5 -6 -16 -12 -25 -12 -15 -14 -15 -25 8 -10
23 -9 25 13 25 13 0 24 -4 24 -8z m100 -2 c0 -5 -4 -10 -10 -10 -5 0 -10 -8
-10 -17 0 -15 -2 -14 -15 3 -20 27 -19 34 10 34 14 0 25 -4 25 -10z m89 0 c0
-3 -4 -13 -8 -24 -7 -17 -8 -17 -24 7 -16 24 -15 25 8 23 14 0 25 -3 24 -6z
m101 2 c0 -5 -6 -16 -12 -25 -12 -15 -14 -15 -25 8 -10 23 -9 25 13 25 13 0
24 -4 24 -8z m88 -11 c-9 -15 -15 -17 -25 -9 -20 16 -15 28 12 28 22 0 24 -2
13 -19z m102 12 c0 -9 -14 -33 -19 -33 -3 0 -12 9 -18 19 -10 17 -9 19 13 17
13 0 24 -2 24 -3z m100 0 c0 -5 -7 -17 -15 -27 -13 -17 -15 -18 -15 -3 0 9 -4
17 -10 17 -5 0 -10 5 -10 10 0 6 11 10 25 10 14 0 25 -3 25 -7z m91 -7 c-4 -6
-10 -17 -13 -25 -3 -10 -9 -6 -20 11 -16 24 -16 25 13 25 19 0 26 -4 20 -11z
m99 7 c0 -2 -5 -13 -11 -24 -10 -20 -11 -20 -24 -2 -20 25 -19 28 10 29 14 1
25 0 25 -3z m86 -9 c-3 -9 -6 -20 -6 -25 0 -18 -15 -9 -27 16 -10 23 -9 25 14
25 19 0 24 -4 19 -16z m87 -15 c-6 -23 -19 -25 -27 -3 -10 26 -7 32 13 27 13
-3 17 -11 14 -24z m97 14 c0 -5 -5 -15 -10 -23 -9 -13 -11 -13 -20 0 -15 22
-12 30 10 30 11 0 20 -3 20 -7z m90 3 c0 -11 -13 -36 -19 -36 -3 0 -12 9 -19
20 -11 18 -10 20 13 20 14 0 25 -2 25 -4z m79 -13 c-7 -10 -14 -20 -15 -21 -1
-2 -7 6 -14 17 -10 19 -8 21 16 21 24 0 25 -2 13 -17z m84 -9 c-5 -13 -23 -20
-23 -10 0 2 -3 11 -6 19 -4 12 0 14 15 10 12 -3 17 -11 14 -19z m-1722 -14 c5
0 9 -4 9 -10 0 -5 -11 -10 -25 -10 -28 0 -30 3 -13 33 11 19 13 20 16 5 2 -10
8 -18 13 -18z m99 -9 c0 -3 -11 -7 -25 -7 -28 -2 -29 -1 -14 28 11 21 12 21
25 3 8 -10 14 -21 14 -24z m90 5 c0 -6 -11 -12 -25 -12 -14 -1 -25 2 -25 7 0
5 5 9 10 9 6 0 10 7 10 16 0 14 3 14 15 4 8 -7 15 -18 15 -24z m89 12 c12 -16
11 -18 -13 -18 -24 0 -26 2 -16 21 7 11 13 19 14 17 1 -1 8 -11 15 -20z m99 2
c11 -18 10 -20 -13 -20 -27 0 -28 1 -19 24 8 21 17 20 32 -4z m102 -11 c0 -5
-11 -9 -25 -9 -22 0 -24 2 -13 19 9 15 15 17 25 9 7 -6 13 -14 13 -19z m88 11
c11 -18 10 -20 -13 -20 -27 0 -28 1 -19 24 8 21 17 20 32 -4z m99 1 c10 -16 9
-18 -13 -18 -27 0 -26 -1 -18 21 8 21 17 20 31 -3z m103 -12 c0 -5 -11 -9 -25
-9 -22 0 -24 2 -13 19 9 15 15 17 25 9 7 -6 13 -14 13 -19z m80 17 c0 -8 6
-17 13 -19 6 -3 0 -6 -15 -6 -21 -1 -25 3 -21 19 6 23 23 27 23 6z m110 -15
c0 -4 -9 -7 -20 -7 -11 0 -20 1 -20 2 0 1 3 10 6 18 5 13 9 14 20 5 8 -6 14
-14 14 -18z m90 9 c9 -18 8 -20 -15 -20 -23 0 -24 2 -13 20 7 11 14 20 15 20
1 0 7 -9 13 -20z m93 0 c4 -15 0 -20 -14 -20 -21 0 -22 1 -13 24 8 22 21 20
27 -4z m107 -21 c0 -3 -11 -4 -25 -1 -21 4 -23 7 -14 24 10 19 11 19 24 1 8
-10 15 -21 15 -24z m90 0 c0 -4 -11 -6 -25 -6 -14 0 -25 3 -25 8 0 5 5 9 10 9
6 0 10 8 10 17 0 15 2 14 15 -3 8 -10 15 -22 15 -25z m75 20 c-4 -5 -1 -9 4
-9 6 0 11 -4 11 -10 0 -11 -33 -14 -43 -4 -8 9 15 44 25 38 5 -3 6 -10 3 -15z
m388 1 c-3 -11 -7 -20 -9 -20 -2 0 -8 9 -14 20 -9 17 -8 20 9 20 14 0 18 -5
14 -20z m80 0 c-4 -16 -8 -18 -19 -9 -20 16 -17 29 5 29 14 0 18 -5 14 -20z
m80 -1 c-5 -16 -23 -28 -23 -15 0 2 -2 11 -5 18 -3 8 2 14 14 15 14 1 17 -3
14 -18z m73 5 c-3 -9 -6 -21 -6 -27 -1 -13 -30 22 -30 35 0 4 9 8 21 8 15 0
19 -4 15 -16z m66 -16 c-5 -20 -6 -20 -19 -3 -18 26 -16 34 6 28 13 -3 17 -11
13 -25z m-582 -9 c0 -4 -9 -7 -20 -6 -20 1 -27 17 -13 30 7 8 33 -11 33 -24z
m80 11 c9 -18 8 -20 -15 -20 -23 0 -24 2 -13 20 7 11 14 20 15 20 1 0 7 -9 13
-20z m75 -18 c-22 -5 -27 1 -19 23 7 17 8 17 21 -1 12 -17 12 -19 -2 -22z m88
18 c4 -15 0 -20 -14 -20 -17 0 -18 3 -9 20 6 11 12 20 14 20 2 0 6 -9 9 -20z
m407 6 c0 -8 -4 -18 -10 -21 -5 -3 -10 -4 -10 -1 0 2 -3 11 -6 20 -4 11 -1 16
10 16 9 0 16 -6 16 -14z m63 7 c3 -5 1 -16 -2 -26 -6 -17 -8 -16 -19 7 -9 21
-9 26 3 26 7 0 16 -3 18 -7z m-383 -28 c0 -11 -7 -12 -39 -6 -2 1 2 8 9 16 14
16 30 11 30 -10z m74 9 c9 -23 8 -24 -14 -24 -11 0 -20 2 -20 4 0 12 13 36 20
36 4 0 11 -7 14 -16z m70 -22 c-21 -5 -26 2 -18 22 6 15 7 15 20 -1 11 -15 10
-19 -2 -21z m86 -4 c0 -4 -9 -6 -20 -5 -13 1 -19 6 -15 15 3 7 5 19 5 25 0 11
29 -23 30 -35z m59 0 c1 -5 -6 -8 -15 -8 -11 0 -14 5 -10 16 3 9 6 21 7 27 0
12 17 -20 18 -35z m151 27 c0 -8 -4 -15 -10 -15 -5 0 -10 7 -10 15 0 8 5 15
10 15 6 0 10 -7 10 -15z m53 -11 c-7 -19 -10 -18 -16 5 -3 13 -1 18 9 14 7 -2
10 -11 7 -19z m-140 -4 c3 -13 0 -20 -9 -20 -8 0 -14 9 -14 20 0 11 4 20 9 20
5 0 11 -9 14 -20z m65 -25 c-9 -9 -30 14 -23 25 6 9 10 8 17 -4 6 -10 8 -19 6
-21z m52 3 c0 -5 -4 -8 -10 -8 -5 0 -10 10 -10 23 0 18 2 19 10 7 5 -8 10 -18
10 -22z m50 7 c0 -8 -4 -15 -10 -15 -5 0 -7 7 -4 15 4 8 8 15 10 15 2 0 4 -7
4 -15z m-2182 -28 c-10 -20 -11 -20 -24 -2 -20 27 -17 33 11 27 21 -4 23 -7
13 -25z m102 18 c0 -14 -18 -41 -23 -35 -3 3 -8 15 -11 27 -6 18 -3 22 14 20
11 -1 20 -6 20 -12z m100 7 c0 -1 -5 -11 -12 -21 -11 -18 -13 -18 -25 -3 -18
25 -16 30 12 28 14 0 25 -2 25 -4z m90 -7 c0 -5 -4 -16 -9 -23 -6 -10 -12 -7
-24 11 -16 24 -15 25 8 23 14 0 25 -5 25 -11z m100 3 c0 -15 -18 -45 -22 -38
-28 44 -28 50 -3 50 14 0 25 -6 25 -12z m100 2 c0 -5 -4 -10 -10 -10 -5 0 -10
-8 -10 -17 0 -15 -2 -14 -15 3 -20 27 -19 34 10 34 14 0 25 -4 25 -10z m90 -5
c0 -5 -4 -16 -9 -23 -6 -10 -12 -7 -24 11 -16 24 -15 25 8 23 14 0 25 -5 25
-11z m99 8 c0 -5 -4 -16 -8 -27 -7 -17 -9 -16 -24 8 -17 26 -17 26 8 26 14 0
25 -3 24 -7z m101 -4 c0 -5 -4 -9 -10 -9 -5 0 -10 -8 -10 -17 0 -15 -2 -14
-15 3 -20 26 -19 29 10 30 14 1 25 -2 25 -7z m90 -4 c0 -5 -4 -16 -9 -23 -6
-10 -12 -7 -24 11 -16 24 -15 25 8 23 14 0 25 -5 25 -11z m92 -6 c-6 -23 -22
-35 -22 -16 0 9 -4 17 -10 17 -5 0 -10 4 -10 10 0 5 10 8 23 6 12 -2 21 -10
19 -17z m88 11 c4 0 6 -9 3 -20 -7 -25 -12 -25 -29 -2 -18 23 -17 35 2 28 9
-3 19 -6 24 -6z m1180 0 c0 -5 -5 -10 -11 -10 -5 0 -7 5 -4 10 3 6 8 10 11 10
2 0 4 -4 4 -10z m-2417 -20 c-3 -11 -8 -20 -12 -20 -3 0 -12 9 -19 20 -11 18
-10 20 12 20 19 0 23 -4 19 -20z m95 0 c-7 -11 -15 -20 -18 -20 -3 0 -11 9
-18 20 -11 18 -10 20 18 20 28 0 29 -2 18 -20z m1242 16 c0 -12 -13 -36 -20
-36 -4 0 -10 9 -13 20 -4 15 0 20 14 20 10 0 19 -2 19 -4z m89 -13 c-7 -10
-14 -20 -15 -21 -1 -2 -7 6 -14 17 -10 19 -8 21 16 21 24 0 25 -2 13 -17z m91
13 c0 -2 -3 -12 -6 -20 -5 -13 -9 -14 -20 -5 -20 16 -17 29 6 29 11 0 20 -2
20 -4z m90 -3 c0 -9 -14 -33 -19 -33 -3 0 -12 9 -18 19 -10 17 -9 19 13 17 13
0 24 -2 24 -3z m80 -5 c-1 -29 -15 -36 -27 -12 -10 21 -9 24 8 24 10 0 19 -6
19 -12z m-1732 -24 c10 -19 9 -21 -13 -21 -28 0 -29 1 -14 29 12 22 12 22 27
-8z m102 -16 c0 -5 -11 -8 -25 -8 -14 0 -25 5 -25 10 0 6 5 10 10 10 6 0 10 8
10 17 0 15 2 14 15 -3 8 -10 15 -22 15 -26z m80 33 c0 -5 3 -16 6 -25 5 -12 0
-16 -20 -16 -24 0 -25 2 -14 25 11 24 28 34 28 16z m110 -32 c0 -4 -11 -6 -25
-5 -29 1 -28 1 -14 27 10 20 11 20 24 2 8 -10 15 -21 15 -24z m100 1 c0 -5
-11 -7 -25 -6 -17 1 -23 6 -20 14 3 8 5 18 5 24 0 6 9 3 20 -7 11 -10 20 -21
20 -25z m90 -2 c0 -5 -11 -8 -25 -8 -28 0 -30 3 -13 29 11 18 13 18 25 3 7 -9
13 -20 13 -24z m86 25 c19 -25 17 -28 -11 -28 -17 0 -24 4 -20 13 3 8 5 18 5
23 0 14 12 11 26 -8z m99 0 c3 -10 7 -20 8 -22 4 -8 -44 -8 -49 1 -3 4 0 8 5
8 6 0 11 7 11 15 0 21 16 19 25 -2z m94 -5 c12 -16 11 -18 -13 -18 -24 0 -26
2 -16 21 7 11 13 19 14 17 1 -1 8 -11 15 -20z m98 3 c10 -16 9 -18 -13 -18
-27 0 -26 -1 -18 21 8 21 17 20 31 -3z m103 -12 c0 -5 -12 -9 -27 -8 -16 0
-22 3 -15 6 6 2 12 12 12 20 0 13 3 13 15 3 8 -7 15 -16 15 -21z m91 1 c5 0 9
-4 9 -9 0 -4 -11 -6 -25 -3 -22 4 -23 7 -13 26 11 18 13 19 16 4 2 -10 8 -18
13 -18z m95 13 c19 -26 17 -31 -11 -29 -26 1 -29 5 -19 30 8 20 14 20 30 -1z
m104 -24 c0 -4 -11 -6 -25 -6 -29 0 -29 1 -13 26 11 18 13 18 25 3 7 -9 13
-20 13 -23z m90 -1 c0 -9 -34 -11 -43 -2 -3 3 0 15 6 25 11 18 13 18 25 2 6
-9 12 -20 12 -25z m83 18 c15 -23 15 -24 -8 -22 -26 1 -29 5 -19 30 8 21 9 20
27 -8z m385 4 c-9 -14 -14 -16 -20 -7 -13 20 -9 27 12 27 18 0 19 -3 8 -20z
m81 -1 c-9 -17 -13 -19 -20 -8 -14 22 -11 29 11 29 18 0 19 -3 9 -21z m81 7
c0 -24 -15 -26 -28 -5 -11 16 -9 19 8 19 11 0 20 -6 20 -14z m80 7 c0 -5 -5
-15 -10 -23 -9 -13 -11 -13 -20 0 -15 22 -12 30 10 30 11 0 20 -3 20 -7z m62
-25 c-5 -20 -6 -20 -19 -3 -18 26 -16 34 6 28 13 -3 17 -11 13 -25z m-598 6
c9 -23 8 -24 -14 -24 -11 0 -20 2 -20 4 0 12 13 36 20 36 4 0 11 -7 14 -16z
m80 -22 c-21 -5 -26 2 -18 22 6 15 7 15 20 -1 11 -15 10 -19 -2 -21z m90 0
c-21 -5 -28 4 -20 24 6 16 8 15 21 -2 12 -16 12 -19 -1 -22z m86 18 c9 -17 8
-20 -9 -20 -14 0 -18 5 -14 20 3 11 7 20 9 20 2 0 8 -9 14 -20z m90 -22 c0 -4
-9 -8 -21 -8 -15 0 -19 4 -15 16 3 9 6 21 6 27 1 13 30 -22 30 -35z m323 22
c-3 -11 -7 -20 -9 -20 -2 0 -8 9 -14 20 -9 17 -8 20 9 20 14 0 18 -5 14 -20z
m67 16 c0 -15 -14 -35 -21 -30 -15 9 -10 34 6 34 8 0 15 -2 15 -4z m60 -15 c0
-12 -20 -36 -20 -24 0 6 -3 19 -6 27 -5 12 -2 15 10 10 9 -3 16 -9 16 -13z
m-380 -10 c8 -17 7 -20 -10 -18 -11 1 -20 2 -20 3 0 7 13 34 16 34 2 0 8 -9
14 -19z m75 -19 c-22 -5 -27 1 -19 23 7 17 8 17 21 -1 12 -17 12 -19 -2 -22z
m69 0 c-21 -5 -26 2 -18 22 6 15 7 15 20 -1 11 -15 10 -19 -2 -21z m86 -3 c0
-4 -9 -7 -20 -6 -13 1 -19 6 -15 15 3 7 5 19 5 25 1 13 30 -22 30 -34z m200
21 c0 -11 -2 -20 -4 -20 -2 0 -6 9 -9 20 -3 11 -1 20 4 20 5 0 9 -9 9 -20z
m55 11 c3 -5 1 -12 -5 -16 -5 -3 -10 1 -10 9 0 18 6 21 15 7z m-195 -33 c0 -5
-7 -8 -15 -8 -17 0 -18 2 -9 25 5 13 8 14 15 3 5 -7 9 -16 9 -20z m60 0 c0 -5
-6 -8 -14 -8 -9 0 -12 7 -9 21 4 16 8 17 14 7 5 -7 9 -16 9 -20z m177 10 c-3
-8 -6 -5 -6 6 -1 11 2 17 5 13 3 -3 4 -12 1 -19z m51 -3 c-3 -3 -9 2 -12 12
-6 14 -5 15 5 6 7 -7 10 -15 7 -18z m-168 -17 c0 -4 -6 -5 -14 -2 -8 3 -12 12
-9 21 5 12 7 12 14 1 5 -7 9 -16 9 -20z m46 -5 c-10 -10 -19 5 -10 18 6 11 8
11 12 0 2 -7 1 -15 -2 -18z m-1812 -8 c-9 -29 -13 -31 -29 -9 -20 27 -19 32
10 30 20 -1 24 -5 19 -21z m106 17 c0 -2 -5 -13 -11 -24 -11 -21 -12 -21 -25
-3 -19 26 -18 30 11 30 14 0 25 -1 25 -3z m94 0 c2 -4 -2 -15 -9 -25 -13 -18
-14 -18 -24 2 -6 11 -11 22 -11 25 0 9 38 7 44 -2z m96 0 c0 -2 -5 -12 -11
-23 -10 -20 -11 -20 -24 -2 -20 26 -18 31 10 29 14 0 25 -2 25 -4z m88 -25
c-10 -20 -11 -20 -24 -2 -20 27 -17 33 11 27 21 -4 23 -7 13 -25z m189 2 c-11
-18 -13 -18 -24 -2 -19 25 -16 31 11 26 22 -5 23 -8 13 -24z m1293 21 c0 -5
-5 -10 -11 -10 -5 0 -7 5 -4 10 3 6 8 10 11 10 2 0 4 -4 4 -10z m45 0 c3 -5 1
-10 -4 -10 -6 0 -11 5 -11 10 0 6 2 10 4 10 3 0 8 -4 11 -10z m-2475 -4 c0
-13 -13 -36 -21 -36 -4 0 -13 9 -19 20 -9 18 -8 20 15 20 14 0 25 -2 25 -4z
m90 0 c0 -11 -13 -36 -19 -36 -3 0 -12 9 -19 20 -11 18 -10 20 13 20 14 0 25
-2 25 -4z m90 -17 c-7 -11 -13 -19 -14 -17 -1 1 -8 11 -15 21 -12 15 -11 17
13 17 24 0 26 -2 16 -21z m93 1 c-3 -11 -8 -20 -12 -20 -3 0 -12 9 -19 20 -11
18 -10 20 12 20 19 0 23 -4 19 -20z m97 -1 c-7 -11 -13 -19 -14 -17 -1 1 -8
11 -15 21 -12 15 -11 17 13 17 24 0 26 -2 16 -21z m99 4 c-7 -10 -14 -20 -15
-21 -1 -2 -7 6 -14 17 -10 19 -8 21 16 21 24 0 25 -2 13 -17z m581 10 c0 -5
-4 -14 -9 -22 -7 -11 -11 -9 -20 8 -10 18 -9 21 9 21 11 0 20 -3 20 -7z m190
3 c0 -11 -13 -36 -19 -36 -3 0 -12 9 -19 20 -11 18 -10 20 13 20 14 0 25 -2
25 -4z m89 -13 c-7 -10 -14 -20 -15 -21 -1 -2 -7 6 -14 17 -10 19 -8 21 16 21
24 0 25 -2 13 -17z m90 0 c-7 -10 -14 -20 -15 -21 -1 -2 -7 6 -14 17 -10 19
-8 21 16 21 24 0 25 -2 13 -17z m91 0 c0 -21 -19 -24 -30 -4 -8 17 -7 20 10
18 11 -1 20 -7 20 -14z m90 10 c0 -5 -4 -13 -8 -20 -6 -9 -11 -7 -20 7 -11 17
-10 20 8 20 11 0 20 -3 20 -7z m90 -3 c0 -3 -5 -12 -10 -20 -9 -13 -11 -13
-20 0 -14 22 -12 26 10 26 11 0 20 -3 20 -6z m76 -17 c-3 -8 -6 -17 -6 -21 0
-8 -29 31 -30 40 0 3 9 4 21 1 12 -4 18 -11 15 -20z m-1725 -13 c5 0 9 -4 9
-10 0 -5 -11 -10 -25 -10 -29 0 -30 3 -12 30 9 17 13 18 15 5 2 -8 8 -15 13
-15z m92 6 c15 -23 15 -24 -8 -22 -26 1 -29 5 -19 30 8 21 9 20 27 -8z m107
-18 c0 -5 -11 -8 -25 -8 -28 0 -29 3 -14 31 10 20 11 20 24 2 8 -10 15 -21 15
-25z m90 0 c0 -4 -9 -8 -20 -8 -21 0 -24 8 -13 36 6 16 7 16 20 -2 7 -10 13
-21 13 -26z m100 1 c0 -3 -11 -4 -24 -2 -21 4 -23 8 -13 23 10 17 12 17 24 2
7 -9 13 -20 13 -23z m86 24 c19 -26 17 -31 -11 -29 -17 1 -23 6 -20 14 3 8 5
18 5 23 0 14 12 11 26 -8z m104 -25 c0 -9 -34 -11 -43 -2 -3 3 0 15 6 25 11
18 13 18 25 2 6 -9 12 -20 12 -25z m100 2 c0 -3 -11 -5 -25 -5 -29 0 -29 0
-14 26 10 20 11 20 24 2 8 -10 15 -20 15 -23z m86 23 c19 -26 17 -31 -11 -29
-17 1 -23 6 -20 14 3 8 5 18 5 23 0 14 12 11 26 -8z m104 -24 c0 -3 -11 -4
-24 -2 -22 5 -23 8 -13 24 11 18 13 18 25 2 6 -9 12 -20 12 -24z m100 0 c0 -3
-11 -4 -25 -1 -21 4 -23 7 -14 24 10 19 11 19 24 1 8 -10 15 -21 15 -24z m90
12 c8 -16 6 -19 -15 -17 -17 1 -23 6 -20 14 3 8 5 18 5 23 0 14 18 1 30 -20z
m91 -1 c5 0 9 -4 9 -10 0 -5 -11 -10 -25 -10 -28 0 -30 3 -13 33 11 19 13 20
16 5 2 -10 8 -18 13 -18z m92 6 c15 -23 15 -24 -8 -22 -26 1 -29 5 -19 30 8
21 9 20 27 -8z m567 10 c0 -24 -15 -26 -28 -5 -11 16 -9 19 8 19 11 0 20 -6
20 -14z m80 7 c0 -5 -4 -14 -9 -22 -7 -11 -11 -9 -20 8 -10 18 -9 21 9 21 11
0 20 -3 20 -7z m80 -3 c0 -3 -5 -12 -10 -20 -9 -13 -11 -13 -20 0 -14 22 -12
26 10 26 11 0 20 -3 20 -6z m63 -21 c-5 -18 -6 -18 -18 -2 -15 21 -10 34 9 27
8 -3 12 -14 9 -25z m-2123 1 c9 -18 8 -20 -15 -20 -23 0 -24 2 -13 20 7 11 14
20 15 20 1 0 7 -9 13 -20z m1428 0 c11 -18 10 -20 -13 -20 -27 0 -28 1 -19 24
8 21 17 20 32 -4z m86 4 c9 -23 8 -24 -14 -24 -11 0 -20 2 -20 4 0 12 13 36
20 36 4 0 11 -7 14 -16z m90 0 c3 -9 6 -17 6 -18 0 -1 -9 -2 -20 -3 -11 -1
-20 0 -20 2 0 11 13 35 20 35 4 0 11 -7 14 -16z m86 -4 c9 -17 8 -20 -9 -20
-14 0 -18 5 -14 20 3 11 7 20 9 20 2 0 8 -9 14 -20z m83 0 c4 -15 0 -20 -14
-20 -17 0 -18 3 -9 20 6 11 12 20 14 20 2 0 6 -9 9 -20z m97 -22 c0 -10 -12
-10 -28 0 -7 5 -10 16 -6 26 6 15 7 15 20 -1 7 -10 14 -21 14 -25z m330 35 c0
-5 -4 -14 -9 -22 -7 -11 -11 -9 -20 8 -10 18 -9 21 9 21 11 0 20 -3 20 -7z
m60 -13 c0 -11 -4 -20 -10 -20 -5 0 -10 2 -10 4 0 2 -3 11 -6 20 -4 11 -1 16
10 16 9 0 16 -8 16 -20z m62 -13 c-5 -20 -6 -20 -13 -1 -11 29 -10 34 5 28 8
-3 12 -13 8 -27z m-387 -15 c-22 -5 -27 1 -19 23 7 17 8 17 21 -1 12 -17 12
-19 -2 -22z m85 6 c0 -5 -9 -8 -20 -8 -18 0 -19 3 -9 21 9 17 13 19 20 8 5 -8
9 -17 9 -21z m80 -9 c0 -4 -9 -5 -20 -2 -23 6 -22 5 -13 29 6 16 7 16 20 -2 7
-10 13 -21 13 -25z m280 26 c0 -8 -4 -15 -10 -15 -5 0 -10 7 -10 15 0 8 5 15
10 15 6 0 10 -7 10 -15z m53 -11 c-7 -19 -10 -18 -16 5 -3 13 -1 18 9 14 7 -2
10 -11 7 -19z m-269 0 c9 -23 8 -24 -14 -24 -11 0 -20 2 -20 4 0 12 13 36 20
36 4 0 11 -7 14 -16z m66 -16 c0 -5 -7 -8 -15 -8 -17 0 -18 2 -9 25 5 13 8 14
15 3 5 -7 9 -16 9 -20z m58 -7 c-15 -5 -21 7 -13 26 7 17 8 17 15 -2 4 -11 3
-22 -2 -24z m242 29 c0 -5 -2 -10 -4 -10 -3 0 -8 5 -11 10 -3 6 -1 10 4 10 6
0 11 -4 11 -10z m-170 -31 c0 -3 -7 -6 -15 -6 -17 0 -17 0 -9 22 5 13 8 14 15
3 5 -7 9 -16 9 -19z m50 0 c0 -5 -4 -9 -10 -9 -5 0 -10 7 -10 16 0 8 5 12 10
9 6 -3 10 -10 10 -16z m47 -1 c-3 -8 -6 -5 -6 6 -1 11 2 17 5 13 3 -3 4 -12 1
-19z m201 -3 c-6 -14 -13 -24 -14 -22 -6 6 9 47 17 47 5 0 3 -11 -3 -25z
m-1885 -2 c-7 -3 -13 -12 -13 -20 0 -13 -3 -13 -15 -3 -25 21 -18 38 13 32 15
-3 21 -7 15 -9z m90 -14 c-7 -24 -12 -24 -29 -1 -19 25 -17 30 10 25 17 -4 22
-10 19 -24z m-858 3 c-3 -8 -5 -18 -5 -23 0 -17 -15 -9 -26 15 -10 21 -9 24
13 22 15 -1 21 -6 18 -14z m92 -7 c-11 -23 -13 -23 -24 -8 -19 25 -16 33 11
33 22 0 23 -2 13 -25z m91 6 c-9 -15 -15 -17 -25 -9 -20 16 -15 28 12 28 22 0
24 -2 13 -19z m102 14 c0 -10 -13 -35 -19 -35 -3 0 -11 8 -18 19 -10 16 -9 19
13 19 13 0 24 -2 24 -3z m90 -16 c-7 -11 -13 -19 -14 -17 -1 1 -8 11 -15 21
-12 15 -11 17 13 17 24 0 26 -2 16 -21z m98 2 c-9 -15 -15 -17 -25 -9 -20 16
-15 28 12 28 22 0 24 -2 13 -19z m102 15 c0 -11 -13 -36 -19 -36 -3 0 -12 9
-19 20 -11 18 -10 20 13 20 14 0 25 -2 25 -4z m90 -17 c-7 -11 -13 -19 -14
-17 -1 1 -8 11 -15 21 -12 15 -11 17 13 17 24 0 26 -2 16 -21z m288 1 c-9 -13
-14 -16 -17 -8 -2 7 -9 16 -15 20 -6 4 1 8 17 8 25 0 26 -2 15 -20z m95 0 c-4
-16 -8 -18 -19 -9 -20 16 -17 29 5 29 14 0 18 -5 14 -20z m97 -1 c-7 -11 -13
-19 -14 -17 -1 1 -8 11 -15 21 -12 15 -11 17 13 17 24 0 26 -2 16 -21z m103 9
c-6 -7 -13 -20 -15 -28 -5 -12 -7 -11 -14 5 -4 11 -12 23 -18 27 -6 4 4 8 23
8 25 0 31 -3 24 -12z m86 -5 c-7 -10 -14 -20 -15 -21 -1 -2 -7 6 -14 17 -10
19 -8 21 16 21 24 0 25 -2 13 -17z m94 -4 c-3 -11 -9 -19 -14 -19 -4 0 -13 8
-18 19 -9 16 -7 19 13 19 18 0 22 -5 19 -19z m97 17 c0 -11 -13 -36 -19 -36
-3 0 -12 9 -19 20 -11 18 -10 20 13 20 14 0 25 -2 25 -4z m78 -15 c-7 -9 -13
-18 -14 -19 -1 -2 -7 5 -13 16 -9 17 -7 20 15 20 21 0 23 -3 12 -17z m88 -8
c-3 -8 -6 -17 -6 -21 0 -8 -29 31 -30 40 0 3 9 4 21 1 12 -4 18 -11 15 -20z
m-1469 -31 c-26 -5 -31 3 -17 28 l12 22 12 -23 c10 -21 9 -24 -7 -27z m106 24
c15 -23 15 -24 -8 -22 -26 1 -29 5 -19 30 8 21 9 20 27 -8z m186 -24 c-27 -5
-29 -1 -22 27 l6 24 18 -24 c18 -23 18 -24 -2 -27z m104 24 c15 -23 15 -24 -8
-22 -26 1 -29 5 -19 30 8 21 9 20 27 -8z m107 -17 c0 -4 -11 -6 -25 -6 -14 0
-25 3 -25 8 0 5 5 9 10 9 6 0 9 3 9 8 -4 21 3 24 16 6 8 -10 15 -22 15 -25z
m80 32 c0 -5 3 -16 6 -25 4 -12 0 -16 -15 -16 -22 0 -25 8 -15 34 7 17 24 22
24 7z m104 -15 c15 -24 15 -25 -9 -22 -25 3 -27 8 -18 34 7 16 8 16 27 -12z
m106 -17 c0 -4 -11 -6 -25 -6 -14 0 -25 3 -25 8 0 5 5 9 10 9 6 0 9 3 9 8 -4
21 3 24 16 6 8 -10 15 -22 15 -25z m87 16 c10 -23 9 -25 -14 -25 -19 0 -24 4
-19 16 3 9 6 20 6 25 0 18 15 9 27 -16z m103 -16 c0 -4 -11 -6 -25 -6 -28 0
-29 1 -14 28 10 20 11 20 24 2 8 -10 15 -21 15 -24z m84 16 c16 -25 16 -25
-13 -25 -27 0 -28 1 -18 25 7 14 13 25 13 25 1 0 9 -11 18 -25z m83 -23 c-26
-5 -31 3 -17 28 l12 22 12 -23 c10 -21 9 -24 -7 -27z m403 28 c-6 -11 -12 -20
-14 -20 -2 0 -6 9 -9 20 -4 15 0 20 14 20 17 0 18 -3 9 -20z m90 16 c0 -2 -3
-12 -6 -20 -5 -13 -9 -14 -20 -5 -20 16 -17 29 6 29 11 0 20 -2 20 -4z m80 -3
c0 -5 -5 -15 -10 -23 -9 -13 -11 -13 -20 0 -15 22 -12 30 10 30 11 0 20 -3 20
-7z m80 0 c0 -5 -5 -15 -10 -23 -9 -13 -11 -13 -20 0 -15 22 -12 30 10 30 11
0 20 -3 20 -7z m65 -11 c-3 -7 -5 -19 -5 -25 -1 -13 -30 22 -30 34 0 4 9 7 20
6 13 -1 19 -6 15 -15z m71 -9 c-3 -8 -6 -17 -6 -21 0 -8 -29 31 -30 40 0 3 9
4 21 1 12 -4 18 -11 15 -20z m464 17 c0 -5 -4 -10 -10 -10 -5 0 -10 5 -10 10
0 6 5 10 10 10 6 0 10 -4 10 -10z m-2670 -20 c9 -18 8 -20 -15 -20 -23 0 -24
2 -15 20 6 11 13 20 15 20 2 0 9 -9 15 -20z m90 0 c9 -18 8 -20 -15 -20 -23 0
-24 2 -15 20 6 11 13 20 15 20 2 0 9 -9 15 -20z m98 0 c11 -18 10 -20 -18 -20
-28 0 -29 2 -18 20 7 11 15 20 18 20 3 0 11 -9 18 -20z m292 -11 c0 -5 -11 -9
-25 -9 -28 0 -31 5 -12 24 12 14 37 4 37 -15z m1037 12 c10 -16 9 -18 -11 -18
-18 0 -22 4 -19 18 3 11 8 19 12 19 3 0 11 -8 18 -19z m92 -3 c12 -16 11 -18
-13 -18 -23 0 -25 2 -14 20 7 10 13 18 13 17 0 -1 7 -10 14 -19z m84 2 c4 -15
0 -20 -14 -20 -17 0 -18 3 -9 20 6 11 12 20 14 20 2 0 6 -9 9 -20z m97 -21 c0
-4 -9 -5 -20 -2 -23 6 -22 5 -13 29 6 16 7 16 20 -2 7 -10 13 -21 13 -25z
m490 34 c0 -5 -4 -13 -8 -20 -6 -9 -11 -7 -20 7 -11 17 -10 20 8 20 11 0 20
-3 20 -7z m60 0 c0 -10 -20 -40 -20 -31 0 3 -3 13 -6 22 -4 11 -1 16 10 16 9
0 16 -3 16 -7z m-476 -19 c3 -9 6 -17 6 -18 0 -1 -9 -2 -20 -2 -11 0 -20 1
-20 2 0 11 14 34 20 34 4 0 11 -7 14 -16z m80 0 c9 -23 8 -24 -13 -24 -14 0
-18 5 -14 20 6 24 19 26 27 4z m80 0 c9 -23 8 -24 -13 -24 -14 0 -18 5 -14 20
6 24 19 26 27 4z m76 -4 c9 -17 8 -20 -9 -20 -14 0 -18 5 -14 20 3 11 7 20 9
20 2 0 8 -9 14 -20z m80 -22 c0 -9 -24 -11 -32 -2 -3 3 -3 15 0 26 5 20 6 20
19 3 7 -11 13 -22 13 -27z m220 27 c0 -8 -4 -15 -9 -15 -5 0 -11 7 -15 15 -3
9 0 15 9 15 8 0 15 -7 15 -15z m50 -7 c0 -19 -2 -20 -10 -8 -13 19 -13 30 0
30 6 0 10 -10 10 -22z m-206 -4 c8 -21 9 -20 -13 -21 -14 -1 -17 3 -14 18 6
23 19 25 27 3z m66 -16 c0 -5 -7 -8 -15 -8 -17 0 -18 2 -9 25 5 13 8 14 15 3
5 -7 9 -16 9 -20z m60 -5 c0 -7 -6 -10 -14 -7 -8 3 -12 13 -9 25 5 16 8 18 14
7 5 -7 9 -18 9 -25z m140 33 c0 -3 -4 -8 -10 -11 -5 -3 -10 -1 -10 4 0 6 5 11
10 11 6 0 10 -2 10 -4z m40 -11 c0 -8 -2 -15 -4 -15 -2 0 -6 7 -10 15 -3 8 -1
15 4 15 6 0 10 -7 10 -15z m-120 -27 c0 -4 -6 -5 -14 -2 -8 3 -12 12 -9 21 5
12 7 12 14 1 5 -7 9 -16 9 -20z m46 -5 c-10 -10 -19 5 -10 18 6 11 8 11 12 0
2 -7 1 -15 -2 -18z m194 17 c0 -5 -2 -10 -4 -10 -3 0 -8 5 -11 10 -3 6 -1 10
4 10 6 0 11 -4 11 -10z m23 -10 c-3 -11 -9 -20 -13 -20 -5 0 -6 9 -3 20 3 11
9 20 13 20 5 0 6 -9 3 -20z m-163 0 c0 -5 -5 -10 -11 -10 -5 0 -7 5 -4 10 3 6
8 10 11 10 2 0 4 -4 4 -10z m44 -6 c3 -8 2 -12 -4 -9 -6 3 -10 10 -10 16 0 14
7 11 14 -7z m-2569 -23 c-8 -26 -21 -27 -28 -2 -3 13 1 21 12 24 22 5 24 2 16
-22z m91 3 c-10 -22 -12 -22 -23 -7 -18 24 -16 31 10 31 22 0 23 -3 13 -24z
m104 16 c0 -3 -6 -14 -12 -23 -12 -14 -15 -14 -30 8 -18 24 -18 24 12 23 17
-1 30 -4 30 -8z m90 2 c0 -5 -6 -16 -12 -25 -12 -15 -14 -15 -25 8 -10 23 -9
25 13 25 13 0 24 -4 24 -8z m88 -11 c-9 -15 -15 -17 -25 -9 -20 16 -15 28 12
28 22 0 24 -2 13 -19z m102 12 c0 -9 -14 -33 -19 -33 -3 0 -12 9 -18 19 -10
17 -9 19 13 17 13 0 24 -2 24 -3z m100 3 c0 -11 -13 -36 -19 -36 -3 0 -12 9
-19 20 -11 18 -10 20 13 20 14 0 25 -2 25 -4z m88 -15 c-9 -15 -15 -17 -25 -9
-20 16 -15 28 12 28 22 0 24 -2 13 -19z m102 15 c0 -11 -13 -36 -19 -36 -3 0
-12 9 -19 20 -11 18 -10 20 13 20 14 0 25 -2 25 -4z m89 -18 c-10 -18 -13 -20
-17 -8 -3 8 -10 18 -16 22 -6 4 2 8 17 8 26 0 27 -2 16 -22z m99 3 c-9 -15
-15 -17 -25 -9 -20 16 -15 28 12 28 22 0 24 -2 13 -19z m102 15 c0 -11 -13
-36 -19 -36 -3 0 -12 9 -19 20 -11 18 -10 20 13 20 14 0 25 -2 25 -4z m100 0
c0 -11 -13 -36 -19 -36 -3 0 -12 9 -19 20 -11 18 -10 20 13 20 14 0 25 -2 25
-4z m88 -16 c-7 -11 -15 -20 -18 -20 -3 0 -11 9 -18 20 -11 18 -10 20 18 20
28 0 29 -2 18 -20z m91 -1 c-5 -11 -12 -19 -14 -19 -2 0 -9 8 -14 19 -9 16 -7
19 14 19 21 0 23 -3 14 -19z m101 17 c0 -11 -13 -36 -19 -36 -3 0 -12 9 -19
20 -11 18 -10 20 13 20 14 0 25 -2 25 -4z m90 0 c0 -11 -13 -36 -19 -36 -3 0
-12 9 -19 20 -11 18 -10 20 13 20 14 0 25 -2 25 -4z m83 -22 c-5 -13 -23 -20
-23 -10 0 2 -3 11 -6 19 -4 12 0 14 15 10 12 -3 17 -11 14 -19z m1007 16 c0
-5 -5 -10 -11 -10 -5 0 -7 5 -4 10 3 6 8 10 11 10 2 0 4 -4 4 -10z m-1913 -48
c-26 -5 -31 3 -17 28 l12 22 12 -23 c10 -21 9 -24 -7 -27z m106 24 c15 -23 15
-24 -8 -22 -26 1 -29 5 -19 30 8 21 9 20 27 -8z m107 -18 c0 -5 -11 -8 -25 -8
-14 0 -25 5 -25 10 0 6 5 10 10 10 6 0 10 8 10 17 0 15 2 14 15 -3 8 -10 15
-22 15 -26z m91 12 c5 0 9 -4 9 -10 0 -5 -11 -10 -25 -10 -28 0 -30 3 -13 33
11 19 13 20 16 5 2 -10 8 -18 13 -18z m92 6 c15 -23 15 -24 -8 -22 -26 1 -29
5 -19 30 8 21 9 20 27 -8z m186 -24 c-27 -5 -29 -1 -22 27 l6 24 18 -24 c18
-23 18 -24 -2 -27z m415 33 c-4 -8 -10 -15 -14 -15 -4 0 -10 7 -14 15 -4 10 1
15 14 15 13 0 18 -5 14 -15z m79 -5 c-3 -11 -7 -20 -9 -20 -2 0 -8 9 -14 20
-9 17 -8 20 9 20 14 0 18 -5 14 -20z m87 -1 c-7 -11 -13 -19 -14 -17 -1 1 -8
11 -15 21 -12 15 -11 17 13 17 24 0 26 -2 16 -21z m90 14 c0 -5 -5 -15 -10
-23 -9 -13 -11 -13 -20 0 -15 22 -12 30 10 30 11 0 20 -3 20 -7z m69 -10 c-7
-10 -14 -20 -15 -21 -1 -2 -7 6 -14 17 -10 19 -8 21 16 21 24 0 25 -2 13 -17z
m74 -14 c-5 -18 -6 -19 -19 -2 -19 25 -17 32 5 26 13 -3 17 -11 14 -24z
m-2133 -19 c0 -3 -9 -6 -20 -6 -21 0 -24 5 -14 30 6 15 8 15 20 -1 7 -10 14
-20 14 -23z m90 1 c0 -3 -11 -7 -25 -7 -14 -1 -25 2 -25 7 0 5 5 9 10 9 6 0
10 8 10 18 1 15 2 15 15 -2 8 -11 15 -22 15 -25z m83 19 c4 -15 0 -20 -14 -20
-21 0 -22 1 -13 24 8 22 21 20 27 -4z m95 0 c11 -18 10 -20 -12 -20 -19 0 -23
4 -19 20 3 11 8 20 12 20 3 0 12 -9 19 -20z m102 -11 c0 -5 -11 -9 -25 -9 -22
0 -24 2 -13 19 9 15 15 17 25 9 7 -6 13 -14 13 -19z m78 -7 c-27 -5 -34 4 -18
23 11 14 14 13 26 -2 11 -16 10 -18 -8 -21z m109 19 c10 -17 9 -19 -13 -17
-13 0 -24 2 -24 3 0 9 14 33 19 33 3 0 12 -9 18 -19z m103 -12 c0 -5 -11 -9
-25 -9 -22 0 -24 2 -13 19 9 15 15 17 25 9 7 -6 13 -14 13 -19z m580 0 c0 -5
-11 -9 -25 -9 -28 0 -31 5 -12 24 12 14 37 4 37 -15z m177 12 c10 -16 9 -18
-13 -18 -27 0 -26 -1 -18 21 8 21 17 20 31 -3z m93 -1 c9 -18 8 -20 -15 -20
-23 0 -24 2 -13 20 7 11 14 20 15 20 1 0 7 -9 13 -20z m89 -2 c12 -16 11 -18
-13 -18 -23 0 -25 2 -14 20 7 10 13 18 13 17 0 -1 7 -10 14 -19z m85 -16 c-21
-5 -26 2 -18 22 6 15 7 15 20 -1 11 -15 10 -19 -2 -21z m168 -10 c-20 -5 -25
3 -17 28 l7 22 12 -23 c10 -19 9 -25 -2 -27z m358 41 c0 -5 -4 -14 -9 -21 -6
-10 -10 -9 -14 7 -3 14 0 21 9 21 8 0 14 -3 14 -7z m70 0 c0 -10 -20 -40 -20
-31 0 3 -3 13 -6 22 -4 11 -1 16 10 16 9 0 16 -3 16 -7z m60 -13 c0 -11 -4
-20 -10 -20 -5 0 -10 2 -10 4 0 2 -3 11 -6 20 -4 11 -1 16 10 16 9 0 16 -8 16
-20z m-560 -11 c0 -5 -10 -9 -21 -9 -18 0 -19 2 -9 15 12 15 30 12 30 -6z
m164 5 c3 -9 6 -17 6 -18 0 -1 -9 -2 -20 -2 -11 0 -20 1 -20 2 0 11 14 34 20
34 4 0 11 -7 14 -16z m71 -22 c-22 -5 -27 1 -19 23 7 17 8 17 21 -1 12 -17 12
-19 -2 -22z m79 0 c-21 -5 -26 2 -18 22 6 15 7 15 20 -1 11 -15 10 -19 -2 -21z
m309 18 c-3 -11 -7 -20 -8 -20 -1 0 -5 9 -8 20 -3 12 0 20 8 20 8 0 11 -8 8
-20z m57 11 c0 -6 -4 -13 -10 -16 -5 -3 -10 1 -10 9 0 9 5 16 10 16 6 0 10 -4
10 -9z m-286 -17 c9 -22 8 -23 -13 -17 -12 3 -17 11 -14 19 7 19 19 18 27 -2z
m70 0 c9 -23 8 -24 -13 -24 -14 0 -18 5 -14 20 6 24 19 26 27 4z m65 -6 c12
-16 11 -18 -7 -18 -15 0 -19 5 -15 20 3 12 6 19 7 18 1 -2 8 -11 15 -20z m68
-24 c-10 -10 -29 17 -22 32 6 17 8 17 16 -5 5 -13 8 -25 6 -27z m137 31 c-4
-8 -8 -15 -10 -15 -2 0 -4 7 -4 15 0 8 4 15 10 15 5 0 7 -7 4 -15z m96 5 c0
-5 -4 -10 -10 -10 -5 0 -10 5 -10 10 0 6 5 10 10 10 6 0 10 -4 10 -10z m-182
-39 c-15 -5 -19 4 -11 24 6 18 7 18 13 -1 4 -10 3 -21 -2 -23z m62 7 c0 -5 -4
-8 -10 -8 -5 0 -10 10 -10 23 0 18 2 19 10 7 5 -8 10 -18 10 -22z m217 10 c-3
-8 -6 -5 -6 6 -1 11 2 17 5 13 3 -3 4 -12 1 -19z m-2427 -16 c0 -2 -5 -12 -11
-23 -10 -20 -11 -20 -24 -2 -20 26 -18 31 10 29 14 0 25 -2 25 -4z m90 -7 c0
-5 -4 -16 -9 -23 -6 -10 -12 -7 -24 11 -16 24 -15 25 8 23 14 0 25 -5 25 -11z
m100 11 c0 -11 -13 -36 -19 -36 -3 0 -12 9 -19 20 -11 18 -10 20 13 20 14 0
25 -2 25 -4z m100 -7 c0 -5 -5 -9 -11 -9 -5 0 -7 -4 -4 -10 3 -5 2 -10 -4 -10
-6 0 -15 8 -20 19 -9 16 -7 19 14 19 14 0 25 -4 25 -9z m87 -16 c-5 -13 -11
-22 -11 -21 -1 2 -9 12 -19 24 -17 20 -16 21 12 21 27 0 28 -2 18 -24z m102
20 c0 -5 -4 -16 -8 -27 -7 -17 -9 -16 -24 8 -17 26 -17 26 8 26 14 0 25 -3 24
-7z m92 -6 c-6 -8 -8 -17 -4 -20 3 -4 1 -7 -5 -7 -6 0 -16 9 -22 20 -9 18 -8
20 16 20 21 0 24 -3 15 -13z m98 -9 c-12 -22 -12 -22 -33 1 -17 19 -17 20 13
19 26 -1 29 -3 20 -20z m101 18 c0 -11 -13 -36 -19 -36 -3 0 -12 9 -19 20 -11
18 -10 20 13 20 14 0 25 -2 25 -4z m89 -13 c-7 -10 -14 -20 -15 -21 -1 -2 -7
6 -14 17 -10 19 -8 21 16 21 24 0 25 -2 13 -17z m101 10 c0 -9 -14 -33 -19
-33 -3 0 -12 9 -18 19 -10 17 -9 19 13 17 13 0 24 -2 24 -3z m100 0 c0 -5 -6
-15 -13 -24 -11 -15 -14 -14 -24 7 -10 22 -9 24 13 24 13 0 24 -3 24 -7z m90
3 c0 -11 -13 -36 -19 -36 -3 0 -12 9 -19 20 -11 18 -10 20 13 20 14 0 25 -2
25 -4z m90 -3 c0 -9 -14 -33 -19 -33 -3 0 -12 9 -18 19 -10 17 -9 19 13 17 13
0 24 -2 24 -3z m1070 -3 c0 -5 -2 -10 -4 -10 -3 0 -8 5 -11 10 -3 6 -1 10 4
10 6 0 11 -4 11 -10z m-2592 -20 c-11 -18 -28 -27 -28 -16 0 2 -3 11 -6 20 -5
12 0 16 20 16 24 0 25 -2 14 -20z m92 13 c0 -5 -4 -14 -9 -22 -7 -11 -11 -9
-20 8 -10 18 -9 21 9 21 11 0 20 -3 20 -7z m88 -13 c-9 -13 -14 -16 -17 -8 -2
7 -9 16 -15 20 -6 4 1 8 17 8 25 0 26 -2 15 -20z m725 -17 c7 -10 3 -13 -17
-13 -24 0 -25 2 -14 26 8 17 14 21 16 13 3 -8 9 -20 15 -26z m290 0 c7 -10 3
-13 -17 -13 -24 0 -25 2 -14 26 8 17 14 21 16 13 3 -8 9 -20 15 -26z m410 21
c-3 -9 -9 -12 -12 -7 -3 4 -10 11 -15 16 -5 4 0 7 12 7 15 0 20 -4 15 -16z
m87 1 c-7 -8 -14 -15 -15 -15 -2 0 -5 7 -9 15 -4 10 1 15 16 15 17 0 18 -2 8
-15z m89 -6 c-9 -17 -13 -19 -20 -8 -14 22 -11 29 11 29 18 0 19 -3 9 -21z
m91 14 c0 -5 -4 -13 -8 -20 -6 -9 -11 -7 -20 7 -11 17 -10 20 8 20 11 0 20 -3
20 -7z m79 -10 c-7 -10 -14 -20 -15 -21 -1 -2 -7 6 -14 17 -10 19 -8 21 16 21
24 0 25 -2 13 -17z m81 0 c0 -21 -19 -24 -30 -4 -8 17 -7 20 10 18 11 -1 20
-7 20 -14z m75 0 c-3 -8 -5 -20 -5 -26 0 -6 -6 -2 -14 8 -16 23 -14 32 9 32
10 0 14 -6 10 -14z m-2055 -35 c0 -4 -9 -8 -21 -8 -15 0 -19 4 -15 16 3 9 6
21 6 27 1 13 30 -22 30 -35z m83 18 c15 -23 15 -24 -9 -22 -16 1 -22 6 -19 14
3 8 5 18 5 23 0 15 7 11 23 -15z m93 7 c19 -26 17 -31 -11 -29 -17 1 -23 6
-20 14 3 8 5 18 5 23 0 14 12 11 26 -8z m93 -5 c12 -16 11 -18 -13 -18 -23 0
-25 2 -14 20 7 10 13 18 13 17 0 -1 7 -10 14 -19z m98 3 c10 -16 9 -18 -13
-18 -27 0 -26 -1 -18 21 8 21 17 20 31 -3z m103 -12 c0 -5 -11 -9 -25 -9 -22
0 -24 2 -13 19 9 15 15 17 25 9 7 -6 13 -14 13 -19z m89 9 c12 -16 11 -18 -13
-18 -23 0 -25 2 -14 20 7 10 13 18 13 17 0 -1 7 -10 14 -19z m98 3 c10 -16 9
-18 -13 -18 -27 0 -26 -1 -18 21 8 21 17 20 31 -3z m101 -1 c11 -18 10 -20
-18 -20 -28 0 -29 2 -18 20 7 11 15 20 18 20 3 0 11 -9 18 -20z m189 1 c10
-17 9 -19 -13 -17 -13 0 -24 2 -24 3 0 9 14 33 19 33 3 0 12 -9 18 -19z m101
-1 c11 -18 10 -20 -18 -20 -28 0 -29 2 -18 20 7 11 15 20 18 20 3 0 11 -9 18
-20z m189 1 c10 -17 9 -19 -13 -17 -13 0 -24 2 -24 3 0 9 14 33 19 33 3 0 12
-9 18 -19z m93 -1 c9 -18 8 -20 -15 -20 -23 0 -24 2 -13 20 7 11 14 20 15 20
1 0 7 -9 13 -20z m89 -2 c12 -16 11 -18 -13 -18 -23 0 -25 2 -14 20 7 10 13
18 13 17 0 -1 7 -10 14 -19z m86 -16 c-22 -5 -27 1 -19 23 7 17 8 17 21 -1 12
-17 12 -19 -2 -22z m618 17 c-4 -16 -8 -17 -14 -7 -13 19 -11 28 5 28 9 0 12
-7 9 -21z m77 5 c0 -7 -4 -16 -10 -19 -5 -3 -10 -4 -10 -1 0 2 -2 11 -5 19 -4
8 0 14 10 14 8 0 15 -6 15 -13z m69 9 c-1 -16 -18 -48 -18 -36 -1 6 -4 18 -7
27 -4 11 -1 16 10 16 9 0 16 -3 15 -7z m61 -13 c0 -5 -4 -12 -10 -15 -5 -3
-10 -4 -10 -1 0 2 -3 12 -6 20 -5 12 -2 15 10 10 9 -3 16 -10 16 -14z m-2420
-21 c0 -5 -9 -9 -20 -9 -22 0 -23 1 -14 24 5 13 9 14 20 5 8 -6 14 -15 14 -20z
m1690 16 c10 -13 9 -15 -8 -15 -15 0 -20 5 -16 15 4 8 7 15 9 15 1 0 8 -7 15
-15z m79 -14 c-15 -5 -22 6 -14 19 6 9 10 9 16 -1 5 -8 4 -15 -2 -18z m95 13
c9 -22 8 -23 -13 -17 -12 3 -17 11 -14 19 7 19 19 18 27 -2z m81 -22 c-22 -5
-27 1 -19 23 7 17 8 17 21 -1 12 -17 12 -19 -2 -22z m79 0 c-21 -5 -26 2 -18
22 6 15 7 15 20 -1 11 -15 10 -19 -2 -21z m86 6 c0 -5 -7 -8 -15 -8 -15 0 -20
21 -8 33 7 7 23 -11 23 -25z m370 23 c0 -17 -18 -21 -24 -6 -3 9 0 15 9 15 8
0 15 -4 15 -9z m50 -11 c0 -11 -2 -20 -4 -20 -2 0 -6 9 -9 20 -3 11 -1 20 4
20 5 0 9 -9 9 -20z m-346 -6 c9 -22 8 -23 -13 -17 -12 3 -17 11 -14 19 7 19
19 18 27 -2z m70 0 c9 -22 8 -24 -9 -24 -8 0 -15 9 -15 20 0 24 15 27 24 4z
m76 -16 c0 -5 -7 -8 -15 -8 -15 0 -20 21 -8 33 7 7 23 -11 23 -25z m60 0 c0
-5 -6 -8 -14 -8 -9 0 -12 7 -9 21 4 16 8 17 14 7 5 -7 9 -16 9 -20z m240 17
c0 -8 -2 -15 -4 -15 -2 0 -6 7 -10 15 -3 8 -1 15 4 15 6 0 10 -7 10 -15z
m-180 -21 c0 -8 -4 -12 -10 -9 -5 3 -10 13 -10 21 0 8 5 12 10 9 6 -3 10 -13
10 -21z m54 11 c3 -8 1 -15 -4 -15 -6 0 -10 7 -10 15 0 8 2 15 4 15 2 0 6 -7
10 -15z m56 -15 c0 -5 -5 -10 -11 -10 -5 0 -7 5 -4 10 3 6 8 10 11 10 2 0 4
-4 4 -10z m-1903 -30 c-6 -10 -15 -16 -19 -14 -5 3 -6 10 -3 15 4 5 1 9 -4 9
-6 0 -11 4 -11 9 0 4 11 6 24 4 21 -4 23 -8 13 -23z m103 23 c0 -1 -3 -8 -6
-17 -8 -21 -21 -20 -33 3 -9 16 -7 19 14 17 14 0 25 -2 25 -3z m89 -15 c-8
-15 -13 -17 -25 -7 -21 17 -17 27 11 27 21 0 23 -3 14 -20z m98 -3 c-11 -23
-13 -23 -24 -8 -19 25 -16 33 11 33 22 0 23 -2 13 -25z m103 14 c0 -5 -5 -9
-11 -9 -5 0 -7 -4 -4 -10 3 -5 2 -10 -4 -10 -6 0 -15 8 -20 19 -9 16 -7 19 14
19 14 0 25 -4 25 -9z m89 -11 c-8 -15 -13 -17 -25 -7 -21 17 -17 27 11 27 21
0 23 -3 14 -20z m100 15 c0 -5 -4 -16 -8 -27 -7 -17 -9 -16 -24 8 -17 26 -17
26 8 26 14 0 25 -3 24 -7z m101 0 c0 -2 -6 -11 -14 -18 -10 -10 -16 -11 -25
-2 -17 17 -13 25 14 25 14 0 25 -3 25 -5z m90 0 c0 -9 -14 -33 -19 -33 -3 0
-12 9 -18 19 -10 17 -9 19 13 17 13 0 24 -2 24 -3z m-1430 -9 c0 -1 -3 -10 -6
-18 -5 -13 -9 -14 -20 -5 -20 16 -17 28 6 26 11 -1 20 -2 20 -3z m93 -6 c-6
-7 -12 -18 -14 -25 -2 -7 -9 -1 -16 12 -10 23 -9 25 14 25 19 0 23 -3 16 -12z
m86 -5 c-7 -10 -14 -20 -15 -21 -1 -2 -7 6 -14 17 -10 19 -8 21 16 21 24 0 25
-2 13 -17z m94 -4 c-3 -11 -8 -19 -12 -19 -3 0 -11 8 -18 19 -10 16 -9 19 11
19 18 0 22 -5 19 -19z m95 1 c-7 -10 -13 -18 -13 -17 0 1 -7 10 -14 20 -12 15
-11 17 13 17 23 0 25 -2 14 -20z m96 12 c-6 -4 -13 -13 -15 -20 -3 -8 -8 -5
-17 8 -11 18 -10 20 15 20 16 0 23 -4 17 -8z m94 -12 c-7 -10 -13 -18 -13 -17
0 1 -7 10 -14 20 -12 15 -11 17 13 17 23 0 25 -2 14 -20z m535 -17 c7 -10 3
-13 -16 -13 -23 0 -24 2 -14 25 7 13 14 19 16 12 2 -7 8 -18 14 -24z m419 15
c-4 -16 -7 -18 -10 -8 -3 8 -10 18 -16 22 -6 5 -2 8 11 8 17 0 20 -4 15 -22z
m91 2 c-3 -12 -6 -19 -7 -18 -1 2 -8 11 -15 21 -12 15 -11 17 7 17 15 0 19 -5
15 -20z m97 8 c0 -15 -18 -17 -30 -3 -9 11 -8 14 9 12 12 -1 21 -5 21 -9z m82
-10 c-4 -16 -7 -18 -10 -8 -3 8 -10 18 -16 22 -6 5 -2 8 11 8 17 0 20 -4 15
-22z m86 2 c-9 -14 -14 -16 -20 -7 -13 20 -9 27 12 27 18 0 19 -3 8 -20z m92
14 c0 -1 -3 -10 -6 -18 -5 -13 -9 -14 -20 -5 -20 16 -17 25 6 25 11 0 20 -1
20 -2z m80 -1 c0 -5 -4 -13 -8 -20 -6 -9 -11 -7 -20 7 -11 17 -10 20 8 20 11
0 20 -3 20 -7z m73 -19 c-5 -13 -23 -20 -23 -10 0 2 -3 11 -6 19 -4 12 0 14
15 10 12 -3 17 -11 14 -19z m-1884 -26 c1 -5 -8 -8 -19 -8 -23 0 -24 4 -8 33
11 21 11 21 19 2 4 -11 8 -23 8 -27z m101 0 c0 -3 -9 -4 -20 -1 -23 6 -22 5
-14 27 6 15 8 15 20 -1 7 -10 14 -21 14 -25z m184 10 c6 -5 1 -8 -11 -8 -25 0
-26 1 -16 26 5 14 8 15 11 3 3 -7 10 -17 16 -21z m95 10 c12 -16 11 -18 -13
-18 -23 0 -25 2 -14 20 7 10 13 18 13 17 0 -1 7 -10 14 -19z m99 2 c11 -18 10
-20 -12 -20 -19 0 -23 4 -19 20 3 11 8 20 12 20 3 0 12 -9 19 -20z m92 0 c9
-18 8 -20 -15 -20 -23 0 -24 2 -13 20 7 11 14 20 15 20 1 0 7 -9 13 -20z m99
1 c9 -16 7 -18 -14 -18 -21 0 -23 2 -14 18 5 11 12 19 14 19 2 0 9 -8 14 -19z
m99 -1 c11 -18 10 -20 -14 -20 -21 0 -24 3 -15 13 6 8 8 17 4 20 -3 4 -2 7 3
7 5 0 15 -9 22 -20z m190 -1 c11 -14 9 -16 -12 -16 -22 0 -24 2 -15 19 6 11
12 18 13 16 1 -1 7 -10 14 -19z m92 -17 c-27 -4 -32 0 -24 22 6 16 8 16 26 -1
20 -18 20 -18 -2 -21z m99 16 c12 -16 11 -18 -13 -18 -24 0 -26 2 -16 21 7 11
13 19 14 17 1 -1 8 -11 15 -20z m91 3 c8 -17 7 -20 -10 -18 -11 1 -20 2 -20 3
0 7 13 34 16 34 2 0 8 -9 14 -19z m90 -1 c9 -17 8 -20 -12 -19 -13 0 -18 3
-11 5 7 3 9 12 6 20 -8 21 5 17 17 -6z m630 13 c0 -10 -20 -40 -20 -31 0 3 -3
13 -6 22 -4 11 -1 16 10 16 9 0 16 -3 16 -7z m70 -7 c0 -24 -17 -28 -23 -6 -3
13 0 20 9 20 8 0 14 -6 14 -14z m70 7 c0 -10 -20 -40 -20 -31 0 3 -3 13 -6 22
-4 11 -1 16 10 16 9 0 16 -3 16 -7z m60 -19 c0 -21 -17 -17 -23 5 -3 14 -1 18
9 14 8 -3 14 -11 14 -19z m-2437 -4 c4 -15 0 -20 -13 -20 -13 0 -17 5 -13 20
3 11 9 20 13 20 4 0 10 -9 13 -20z m94 1 c10 -17 9 -19 -13 -17 -13 0 -24 2
-24 3 0 9 14 33 19 33 3 0 12 -9 18 -19z m91 -1 c11 -18 10 -20 -13 -20 -14 0
-25 5 -25 10 0 6 5 10 11 10 5 0 7 5 4 10 -3 6 -2 10 2 10 5 0 14 -9 21 -20z
m280 2 c2 -7 -5 -12 -17 -12 -14 0 -19 5 -14 15 6 17 25 15 31 -3z m1237 -4
c6 -4 0 -8 -12 -8 -16 0 -21 4 -16 15 3 9 8 12 12 8 3 -4 11 -11 16 -15z m85
7 c10 -13 9 -15 -8 -15 -15 0 -20 5 -16 15 4 8 7 15 9 15 1 0 8 -7 15 -15z
m89 -4 c9 -16 8 -18 -8 -14 -12 3 -17 11 -14 19 7 18 10 18 22 -5z m84 -1 c4
-15 0 -20 -14 -20 -21 0 -22 1 -13 24 8 22 21 20 27 -4z m87 -11 c0 -3 -7 -6
-15 -6 -15 0 -20 18 -8 30 6 7 22 -10 23 -24z m149 9 c12 -16 11 -18 -7 -18
-15 0 -19 5 -15 20 3 12 6 19 7 18 1 -2 8 -11 15 -20z m305 7 c-4 -8 -7 -15
-9 -15 -2 0 -5 7 -9 15 -3 9 0 15 9 15 9 0 12 -6 9 -15z m56 5 c0 -5 -4 -10
-10 -10 -5 0 -10 5 -10 10 0 6 5 10 10 10 6 0 10 -4 10 -10z m-436 -15 c4 -10
-1 -15 -16 -15 -17 0 -18 2 -8 15 7 8 14 15 15 15 2 0 5 -7 9 -15z m150 -1 c9
-22 8 -24 -9 -18 -8 4 -15 12 -15 20 0 19 16 18 24 -2z m76 -16 c0 -5 -7 -8
-15 -8 -17 0 -18 2 -9 25 5 13 8 14 15 3 5 -7 9 -16 9 -20z m60 12 c9 -16 8
-20 -5 -20 -8 0 -15 9 -15 20 0 11 2 20 5 20 2 0 9 -9 15 -20z m59 -19 c-15
-5 -22 6 -14 19 6 9 10 9 16 -1 5 -8 4 -15 -2 -18z m61 9 c0 -5 -5 -10 -11
-10 -5 0 -7 5 -4 10 3 6 8 10 11 10 2 0 4 -4 4 -10z m55 -10 c3 -5 1 -10 -4
-10 -6 0 -11 5 -11 10 0 6 2 10 4 10 3 0 8 -4 11 -10z m-1628 -22 c-7 -10 -14
-18 -17 -18 -3 0 -10 8 -17 18 -10 16 -8 19 17 19 25 0 27 -3 17 -19z m103 15
c0 -9 -14 -33 -19 -33 -3 0 -12 9 -18 19 -10 17 -9 19 13 17 13 0 24 -2 24 -3z
m87 -21 c-9 -20 -13 -22 -15 -9 -2 9 -8 17 -13 17 -5 0 -9 4 -9 9 0 5 11 9 24
9 23 0 24 -2 13 -26z m103 18 c0 -3 -5 -12 -10 -20 -9 -13 -11 -13 -20 0 -14
22 -12 26 10 26 11 0 20 -3 20 -6z m87 -20 c-10 -17 -12 -17 -24 -2 -18 25
-16 30 11 25 21 -4 23 -8 13 -23z m-1327 6 c0 -15 -20 -44 -20 -29 0 6 -2 18
-5 26 -4 8 0 14 10 14 8 0 15 -5 15 -11z m88 -5 c-9 -15 -15 -17 -25 -9 -20
16 -15 28 12 28 22 0 24 -2 13 -19z m91 -3 c-6 -11 -12 -18 -13 -16 -1 1 -7
10 -14 19 -11 14 -9 17 12 17 22 0 24 -3 15 -20z m101 13 c0 -5 -6 -13 -13
-19 -10 -8 -16 -6 -25 9 -11 17 -9 19 13 19 14 0 25 -4 25 -9z m89 -8 c-7 -10
-14 -20 -15 -21 -1 -2 -7 6 -14 17 -10 19 -8 21 16 21 24 0 25 -2 13 -17z m90
-5 c-6 -11 -12 -18 -13 -16 -1 1 -7 10 -14 19 -11 14 -9 17 12 17 22 0 24 -3
15 -20z m99 2 c-9 -13 -14 -16 -17 -8 -2 7 -9 16 -15 20 -6 4 1 8 17 8 25 0
26 -2 15 -20z m106 12 c-6 -4 -13 -14 -16 -22 -4 -12 -7 -10 -17 8 -11 20 -10
22 16 22 15 0 23 -4 17 -8z m86 -13 c-7 -11 -13 -19 -14 -17 -1 1 -8 11 -15
21 -12 15 -11 17 13 17 24 0 26 -2 16 -21z m98 1 c-9 -13 -14 -16 -17 -8 -2 7
-9 16 -15 20 -6 4 1 8 17 8 25 0 26 -2 15 -20z m576 5 c-4 -8 -10 -15 -16 -15
-5 0 -7 4 -4 9 4 5 0 12 -6 14 -7 3 -3 6 9 6 16 1 21 -3 17 -14z m90 0 c-5
-12 -10 -13 -20 -4 -19 15 -18 19 6 19 13 0 18 -5 14 -15z m96 5 c0 -3 -5 -12
-10 -20 -8 -13 -10 -13 -10 2 0 9 -6 18 -12 21 -7 3 -3 4 10 4 12 -1 22 -4 22
-7z m90 1 c0 -17 -18 -21 -24 -6 -3 9 0 15 9 15 8 0 15 -4 15 -9z m83 -8 c-3
-7 -9 -10 -14 -7 -14 8 -11 21 5 21 8 0 12 -6 9 -14z m97 7 c0 -3 -4 -10 -8
-17 -6 -9 -11 -8 -19 5 -9 15 -7 18 8 18 11 0 19 -3 19 -6z m80 3 c0 -10 -20
-40 -20 -31 0 3 -3 13 -6 22 -4 11 -1 16 10 16 9 0 16 -3 16 -7z m73 -20 c-5
-12 -7 -12 -14 -1 -13 20 -11 28 5 22 8 -3 12 -12 9 -21z m-1330 -3 c4 -15 0
-20 -13 -20 -13 0 -17 5 -13 20 3 11 9 20 13 20 4 0 10 -9 13 -20z m107 -21
c0 -4 -9 -5 -20 -2 -23 6 -22 5 -13 29 6 16 7 16 20 -2 7 -10 13 -21 13 -25z
m89 19 c12 -16 11 -18 -13 -18 -23 0 -25 2 -14 20 7 10 13 18 13 17 0 -1 7
-10 14 -19z m94 2 c4 -15 0 -20 -14 -20 -21 0 -22 1 -13 24 8 22 21 20 27 -4z
m97 1 c8 -17 7 -20 -10 -18 -11 1 -20 2 -20 3 0 7 13 34 16 34 2 0 8 -9 14
-19z m99 -3 c12 -16 11 -18 -13 -18 -23 0 -25 2 -14 20 7 10 13 18 13 17 0 -1
7 -10 14 -19z m94 2 c4 -15 0 -20 -14 -20 -21 0 -22 1 -13 24 8 22 21 20 27
-4z m95 -1 c11 -14 9 -16 -12 -16 -22 0 -24 2 -15 19 6 11 12 18 13 16 1 -1 7
-10 14 -19z m92 1 c9 -17 8 -20 -12 -19 -13 0 -18 3 -11 5 7 3 9 12 6 20 -8
21 5 17 17 -6z m650 11 c0 -17 -18 -21 -24 -6 -3 9 0 15 9 15 8 0 15 -4 15 -9z
m80 2 c0 -5 -4 -14 -9 -21 -6 -10 -10 -9 -14 7 -3 14 0 21 9 21 8 0 14 -3 14
-7z m70 0 c0 -10 -20 -40 -20 -31 0 3 -3 13 -6 22 -4 11 -1 16 10 16 9 0 16
-3 16 -7z m70 -9 c0 -7 -4 -16 -10 -19 -5 -3 -10 -4 -10 -1 0 2 -2 11 -5 19
-4 8 0 14 10 14 8 0 15 -6 15 -13z m63 -11 c-5 -12 -7 -12 -14 -1 -13 20 -11
28 5 22 8 -3 12 -12 9 -21z m-2449 -21 c-21 -5 -28 4 -20 24 6 16 8 15 21 -2
12 -16 12 -19 -1 -22z m179 18 c4 -15 0 -20 -13 -20 -13 0 -17 5 -13 20 3 11
9 20 13 20 4 0 10 -9 13 -20z m95 -1 c11 -14 9 -16 -12 -16 -22 0 -24 2 -15
19 6 11 12 18 13 16 1 -1 7 -10 14 -19z m102 -8 c0 -4 -11 -8 -25 -9 -22 -2
-24 0 -13 18 9 14 16 16 25 8 7 -6 13 -13 13 -17z m84 13 c3 -9 6 -17 6 -18 0
-1 -9 -2 -20 -2 -11 0 -20 1 -20 2 0 11 14 34 20 34 4 0 11 -7 14 -16z m106
-14 c0 -5 -9 -6 -20 -3 -20 5 -25 15 -13 26 7 8 33 -11 33 -23z m89 13 c7 -15
5 -18 -15 -18 -28 0 -28 1 -11 20 15 18 15 18 26 -2z m947 8 c-4 -5 0 -12 6
-14 7 -3 3 -6 -9 -6 -16 -1 -21 3 -17 14 4 8 10 15 16 15 5 0 7 -4 4 -9z m97
-4 c3 -8 -1 -14 -9 -14 -15 0 -18 9 -7 20 9 9 10 9 16 -6z m91 -2 c3 -9 0 -15
-9 -15 -9 0 -12 6 -9 15 4 8 7 15 9 15 2 0 5 -7 9 -15z m80 0 c3 -8 1 -15 -4
-15 -6 0 -10 7 -10 15 0 8 2 15 4 15 2 0 6 -7 10 -15z m90 0 c3 -9 0 -15 -9
-15 -9 0 -12 6 -9 15 4 8 7 15 9 15 2 0 5 -7 9 -15z m86 -5 c9 -17 8 -20 -9
-20 -14 0 -18 5 -14 20 3 11 7 20 9 20 2 0 8 -9 14 -20z m79 -2 c12 -16 11
-18 -7 -18 -15 0 -19 5 -15 20 3 12 6 19 7 18 1 -2 8 -11 15 -20z m81 -10 c0
-5 -6 -8 -14 -8 -9 0 -12 7 -9 21 4 16 8 17 14 7 5 -7 9 -16 9 -20z m304 17
c-4 -8 -7 -15 -9 -15 -2 0 -5 7 -9 15 -3 9 0 15 9 15 9 0 12 -6 9 -15z m54
-10 c-3 -3 -9 2 -12 12 -6 14 -5 15 5 6 7 -7 10 -15 7 -18z m-2468 -6 c0 -5
-10 -9 -21 -9 -18 0 -19 2 -9 15 12 15 30 12 30 -6z m2184 6 c3 -9 0 -15 -9
-15 -9 0 -12 6 -9 15 4 8 7 15 9 15 2 0 5 -7 9 -15z m76 -17 c0 -5 -7 -8 -15
-8 -17 0 -18 2 -9 25 5 13 8 14 15 3 5 -7 9 -16 9 -20z m62 14 c3 -11 0 -19
-8 -19 -16 0 -16 0 -8 21 8 21 11 20 16 -2z m68 -13 c0 -5 -7 -9 -15 -9 -9 0
-12 6 -9 15 6 15 24 11 24 -6z m55 1 c3 -5 1 -10 -4 -10 -6 0 -11 5 -11 10 0
6 2 10 4 10 3 0 8 -4 11 -10z m-2445 -41 c0 -17 -17 -17 -27 1 -10 15 -9 17 8
13 10 -3 19 -9 19 -14z m100 10 c0 -4 -7 -12 -15 -19 -8 -7 -15 -10 -15 -7 0
3 -2 12 -5 19 -4 9 2 14 15 14 11 0 20 -3 20 -7z m90 5 c0 -3 -7 -12 -15 -20
-8 -9 -15 -13 -15 -11 0 3 -2 12 -5 19 -4 9 2 14 15 15 11 1 20 -1 20 -3z m90
0 c0 -1 -3 -10 -6 -18 -5 -13 -9 -14 -20 -5 -20 16 -17 25 6 25 11 0 20 -1 20
-2z m90 -15 c-7 -11 -13 -19 -14 -17 -1 1 -8 11 -15 21 -12 15 -11 17 13 17
24 0 26 -2 16 -21z m92 -1 c-2 -10 -6 -18 -8 -18 -2 0 -8 8 -13 18 -7 14 -6
18 8 18 12 0 17 -6 13 -18z m96 -1 c-5 -10 -11 -17 -12 -15 -1 1 -7 10 -14 19
-11 15 -9 17 12 15 20 -1 22 -4 14 -19z m102 2 c-7 -11 -13 -19 -14 -17 -1 1
-8 11 -15 21 -12 15 -11 17 13 17 24 0 26 -2 16 -21z m104 13 c-6 -4 -13 -14
-16 -22 -4 -12 -7 -10 -17 8 -11 20 -10 22 16 22 15 0 23 -4 17 -8z m89 -12
c-3 -11 -7 -20 -9 -20 -2 0 -8 9 -14 20 -9 17 -8 20 9 20 14 0 18 -5 14 -20z
m95 0 c-9 -13 -14 -16 -17 -8 -2 7 -9 16 -15 20 -6 4 1 8 17 8 25 0 26 -2 15
-20z m95 0 c-3 -12 -6 -19 -7 -18 -1 2 -8 11 -15 21 -12 15 -11 17 7 17 15 0
19 -5 15 -20z m101 5 c-4 -8 -10 -15 -14 -15 -4 0 -10 7 -14 15 -4 10 1 15 14
15 13 0 18 -5 14 -15z m94 -5 c-9 -13 -14 -16 -17 -8 -2 7 -9 16 -15 20 -6 4
1 8 17 8 25 0 26 -2 15 -20z m94 13 c-6 -2 -10 -9 -6 -14 3 -5 1 -9 -4 -9 -6
0 -12 7 -16 15 -4 11 1 15 17 14 12 0 16 -3 9 -6z m98 -3 c0 -3 -4 -10 -8 -17
-6 -9 -11 -7 -20 7 -10 16 -9 18 8 17 11 -1 20 -4 20 -7z m90 -5 c-14 -16 -25
-21 -16 -6 4 5 0 12 -6 14 -7 3 -2 6 11 6 20 1 21 -1 11 -14z m94 7 c-5 -4
-12 -11 -15 -15 -3 -5 -9 -2 -12 5 -3 9 3 14 15 15 11 1 16 -1 12 -5z m256 -7
c0 -12 -19 -12 -23 0 -4 9 -1 12 9 8 7 -3 14 -7 14 -8z m-1960 -10 c-7 -8 -14
-15 -15 -15 -2 0 -5 7 -9 15 -4 10 1 15 16 15 17 0 18 -2 8 -15z m904 -17 c7
-5 7 -8 1 -9 -5 0 -18 -2 -27 -4 -21 -4 -22 -1 -6 25 9 13 14 16 17 8 2 -7 9
-16 15 -20z m86 12 c9 -17 8 -20 -9 -20 -14 0 -18 5 -14 20 3 11 7 20 9 20 2
0 8 -9 14 -20z m99 -2 c12 -16 11 -18 -7 -18 -15 0 -19 5 -15 20 3 12 6 19 7
18 1 -2 8 -11 15 -20z m94 2 c4 -15 0 -20 -14 -20 -17 0 -18 3 -9 20 6 11 12
20 14 20 2 0 6 -9 9 -20z m691 5 c-4 -8 -8 -15 -10 -15 -2 0 -4 7 -4 15 0 8 4
15 10 15 5 0 7 -7 4 -15z m170 0 c-4 -8 -7 -15 -9 -15 -2 0 -5 7 -9 15 -3 9 0
15 9 15 9 0 12 -6 9 -15z m80 0 c-4 -8 -7 -15 -9 -15 -2 0 -5 7 -9 15 -3 9 0
15 9 15 9 0 12 -6 9 -15z m80 0 c-4 -8 -10 -12 -15 -9 -14 8 -10 24 6 24 9 0
12 -6 9 -15z m76 6 c0 -3 -4 -12 -9 -19 -6 -11 -9 -9 -13 5 -3 12 0 20 8 20 8
0 14 -3 14 -6z m70 -7 c0 -14 -3 -14 -15 -4 -8 7 -15 14 -15 16 0 2 7 4 15 4
8 0 15 -7 15 -16z m63 -10 c-7 -19 -10 -18 -16 5 -3 13 -1 18 9 14 7 -2 10
-11 7 -19z m-2375 -23 c-15 -5 -19 4 -11 24 6 18 7 18 13 -1 4 -10 3 -21 -2
-23z m100 18 c11 -14 9 -16 -12 -16 -22 0 -24 2 -15 19 6 11 12 18 13 16 1 -1
7 -10 14 -19z m91 -1 c12 -16 11 -18 -15 -17 -16 0 -23 3 -16 6 6 2 12 12 12
21 0 8 1 13 3 11 1 -2 9 -12 16 -21z m95 -10 c6 -4 -1 -8 -17 -8 -25 0 -26 2
-15 20 9 13 14 16 17 8 2 -7 9 -16 15 -20z m90 16 c8 -21 9 -20 -13 -20 -12 0
-17 6 -13 18 5 22 18 23 26 2z m95 -1 c7 -15 5 -18 -14 -19 -21 -2 -22 0 -12
17 14 23 14 23 26 2z m84 -21 c-22 -5 -27 6 -12 24 12 15 14 14 20 -3 4 -12 1
-19 -8 -21z m114 19 c10 -17 9 -19 -13 -17 -13 0 -24 2 -24 3 0 9 14 33 19 33
3 0 12 -9 18 -19z m103 -10 c0 -3 -11 -7 -24 -7 -22 -2 -23 1 -13 17 8 13 15
15 24 7 7 -6 13 -13 13 -17z m474 14 c4 -10 -1 -15 -14 -15 -13 0 -18 5 -14
15 4 8 10 15 14 15 4 0 10 -7 14 -15z m96 -6 c0 -5 -7 -9 -15 -9 -9 0 -12 6
-9 15 6 15 24 11 24 -6z m95 -1 c6 -4 0 -8 -12 -8 -16 0 -21 4 -16 15 3 9 8
12 12 8 3 -4 11 -11 16 -15z m88 9 c3 -8 -1 -14 -9 -14 -15 0 -18 9 -7 20 9 9
10 9 16 -6z m519 -5 c3 -11 0 -19 -7 -19 -7 0 -10 8 -7 19 2 10 6 18 7 18 1 0
5 -8 7 -18z m402 3 c-4 -8 -10 -12 -15 -9 -14 8 -10 24 6 24 9 0 12 -6 9 -15z
m56 0 c0 -8 -2 -15 -4 -15 -2 0 -6 7 -10 15 -3 8 -1 15 4 15 6 0 10 -7 10 -15z
m-2580 -16 c0 -5 -7 -9 -15 -9 -9 0 -12 6 -9 15 6 15 24 11 24 -6z m1964 5 c3
-8 2 -12 -4 -9 -6 3 -10 10 -10 16 0 14 7 11 14 -7z m75 -13 c-15 -5 -22 6
-14 19 6 9 10 9 16 -1 5 -8 4 -15 -2 -18z m165 14 c3 -9 0 -15 -9 -15 -9 0
-12 6 -9 15 4 8 7 15 9 15 2 0 5 -7 9 -15z m72 -12 c-10 -10 -19 5 -10 18 6
11 8 11 12 0 2 -7 1 -15 -2 -18z m84 -5 c0 -4 -6 -5 -14 -2 -8 3 -12 12 -9 21
5 12 7 12 14 1 5 -7 9 -16 9 -20z m70 1 c0 -5 -7 -9 -15 -9 -9 0 -12 6 -9 15
6 15 24 11 24 -6z m60 0 c0 -5 -4 -9 -10 -9 -5 0 -10 7 -10 16 0 8 5 12 10 9
6 -3 10 -10 10 -16z m64 6 c3 -9 0 -15 -9 -15 -9 0 -12 6 -9 15 4 8 7 15 9 15
2 0 5 -7 9 -15z m-2191 -51 c-4 -11 -7 -11 -19 1 -19 19 -18 24 5 18 12 -3 17
-11 14 -19z m197 20 c0 -1 -3 -10 -6 -18 -5 -13 -9 -14 -20 -5 -20 16 -17 25
6 25 11 0 20 -1 20 -2z m89 -16 c-5 -10 -13 -18 -16 -18 -3 0 -3 3 0 7 4 3 3
11 -3 17 -6 8 -3 12 10 12 15 0 16 -4 9 -18z m98 1 c-6 -10 -12 -17 -12 -16 0
1 -6 9 -13 18 -11 14 -9 17 12 17 21 0 23 -3 13 -19z m103 11 c0 -3 -4 -11 -9
-19 -7 -11 -11 -10 -19 6 -9 15 -7 19 9 19 10 0 19 -3 19 -6z m90 -10 c-6 -11
-12 -20 -14 -20 -2 0 -6 9 -9 20 -4 15 0 20 14 20 17 0 18 -3 9 -20z m104 12
c-6 -4 -13 -13 -15 -20 -3 -8 -8 -5 -17 8 -11 18 -10 20 15 20 16 0 23 -4 17
-8z m96 -2 c0 -3 -4 -10 -8 -17 -6 -9 -11 -8 -19 5 -9 15 -7 18 8 18 11 0 19
-3 19 -6z m93 -6 c-3 -9 -9 -12 -12 -7 -3 4 -10 11 -15 16 -5 4 0 7 12 7 15 0
20 -4 15 -16z m100 7 c-4 -3 -10 -10 -14 -14 -3 -4 -11 -2 -18 6 -9 12 -7 15
14 15 14 0 22 -3 18 -7z m90 -8 c-4 -10 -9 -11 -19 -2 -18 15 -18 15 5 15 11
0 17 -5 14 -13z m100 10 c-7 -2 -21 -2 -30 0 -10 3 -4 5 12 5 17 0 24 -2 18
-5z m-1521 -25 c-2 -10 -6 -18 -8 -18 -2 0 -8 8 -13 18 -7 14 -6 18 8 18 12 0
17 -6 13 -18z m92 7 c-4 -8 -10 -15 -14 -15 -4 0 -10 7 -14 15 -4 10 1 15 14
15 13 0 18 -5 14 -15z m90 8 c-5 -5 -12 -12 -15 -16 -3 -5 -9 -2 -12 7 -5 12
0 16 15 16 12 0 17 -3 12 -7z m90 -8 c-4 -8 -10 -15 -14 -15 -4 0 -10 7 -14
15 -4 10 1 15 14 15 13 0 18 -5 14 -15z m180 0 c-4 -8 -7 -15 -9 -15 -2 0 -5
7 -9 15 -3 9 0 15 9 15 9 0 12 -6 9 -15z m629 -5 c3 -12 0 -20 -8 -20 -8 0
-11 8 -8 20 3 11 7 20 8 20 1 0 5 -9 8 -20z m880 3 c-3 -7 -6 -13 -8 -13 -2 0
-5 6 -8 13 -3 8 1 14 8 14 7 0 11 -6 8 -14z m87 7 c0 -5 -2 -10 -4 -10 -3 0
-8 5 -11 10 -3 6 -1 10 4 10 6 0 11 -4 11 -10z m90 6 c0 -2 -7 -6 -15 -10 -8
-3 -15 -1 -15 4 0 6 7 10 15 10 8 0 15 -2 15 -4z m65 -14 c-3 -3 -11 0 -18 7
-9 10 -8 11 6 5 10 -3 15 -9 12 -12z m85 6 c0 -4 -4 -8 -9 -8 -6 0 -12 4 -15
8 -3 5 1 9 9 9 8 0 15 -4 15 -9z m70 -3 c0 -12 -19 -12 -23 0 -4 9 -1 12 9 8
7 -3 14 -7 14 -8z m70 -6 c0 -14 -17 -10 -23 5 -4 10 -1 13 9 9 7 -3 14 -9 14
-14z m-2212 -28 c-15 -5 -19 4 -11 24 6 18 7 18 13 -1 4 -10 3 -21 -2 -23z
m99 19 c10 -13 8 -16 -8 -16 -10 0 -19 1 -19 2 0 6 13 34 14 32 1 -2 7 -10 13
-18z m185 2 c3 -11 0 -19 -8 -19 -16 0 -16 0 -8 21 8 21 11 20 16 -2z m197 0
c7 -14 6 -18 -10 -18 -22 0 -21 -1 -13 20 8 20 11 20 23 -2z m100 -4 c12 -16
11 -18 -13 -18 -23 0 -25 2 -14 20 7 10 13 18 13 17 0 -1 7 -10 14 -19z m99 1
c11 -15 9 -17 -12 -15 -20 1 -22 4 -14 19 5 10 11 17 12 15 1 -1 7 -10 14 -19z
m96 6 c4 -11 -1 -15 -17 -14 -12 0 -16 3 -9 6 6 2 10 9 6 14 -3 5 -1 9 4 9 6
0 12 -7 16 -15z m189 2 c3 -8 -1 -14 -9 -14 -15 0 -18 9 -7 20 9 9 10 9 16 -6z
m97 -2 c10 -13 9 -15 -11 -14 -13 0 -18 3 -11 6 6 2 10 9 6 14 -9 15 2 10 16
-6z m93 2 c3 -8 -1 -14 -8 -14 -7 0 -11 6 -8 14 3 7 6 13 8 13 2 0 5 -6 8 -13z
m1121 -2 c-4 -8 -7 -15 -9 -15 -2 0 -5 7 -9 15 -3 9 0 15 9 15 9 0 12 -6 9
-15z m66 5 c0 -5 -4 -10 -10 -10 -5 0 -10 5 -10 10 0 6 5 10 10 10 6 0 10 -4
10 -10z m-2606 -15 c3 -8 1 -15 -4 -15 -6 0 -10 7 -10 15 0 8 2 15 4 15 2 0 6
-7 10 -15z m89 2 c3 -8 -1 -14 -8 -14 -7 0 -11 6 -8 14 3 7 6 13 8 13 2 0 5
-6 8 -13z m97 -8 c0 -5 -7 -9 -15 -9 -9 0 -12 6 -9 15 6 15 24 11 24 -6z m273
8 c3 -7 -3 -13 -14 -14 -15 -1 -16 1 -6 12 15 18 14 18 20 2z m190 0 c3 -7 -3
-13 -13 -13 -10 0 -16 6 -13 13 3 7 9 13 13 13 4 0 10 -6 13 -13z m1402 3 c3
-5 1 -10 -4 -10 -6 0 -11 5 -11 10 0 6 2 10 4 10 3 0 8 -4 11 -10z m88 -3 c3
-8 -1 -14 -8 -14 -7 0 -11 6 -8 14 3 7 6 13 8 13 2 0 5 -6 8 -13z m295 -26
c-15 -5 -19 4 -11 24 6 18 7 18 13 -1 4 -10 3 -21 -2 -23z m-143 19 c3 -5 1
-10 -4 -10 -6 0 -11 5 -11 10 0 6 2 10 4 10 3 0 8 -4 11 -10z m78 -3 c3 -8 -1
-14 -8 -14 -7 0 -11 6 -8 14 3 7 6 13 8 13 2 0 5 -6 8 -13z m141 -2 c3 -9 0
-15 -9 -15 -9 0 -12 6 -9 15 4 8 7 15 9 15 2 0 5 -7 9 -15z m66 -5 c0 -5 -5
-10 -11 -10 -5 0 -7 5 -4 10 3 6 8 10 11 10 2 0 4 -4 4 -10z m-1720 -30 c0 -3
-4 -10 -8 -17 -6 -9 -11 -8 -19 5 -9 15 -7 18 8 18 11 0 19 -3 19 -6z m87 -12
c-8 -13 -13 -14 -19 -5 -12 18 -10 23 11 23 15 0 17 -3 8 -18z m103 12 c0 -3
-4 -10 -8 -17 -6 -9 -11 -8 -19 5 -9 15 -7 18 8 18 11 0 19 -3 19 -6z m93 -5
c-3 -9 -8 -14 -10 -11 -3 3 -2 9 2 15 9 16 15 13 8 -4z m85 -10 c-3 -3 -9 2
-12 12 -6 14 -5 15 5 6 7 -7 10 -15 7 -18z m106 12 c4 4 4 -1 0 -10 -3 -10 -7
-17 -8 -15 -1 2 -8 12 -16 23 -14 18 -13 19 1 8 9 -7 19 -10 23 -6z m-1141
-14 c-4 -10 -9 -11 -19 -2 -18 15 -18 15 5 15 11 0 17 -5 14 -13z m90 1 c-3
-9 -9 -12 -12 -7 -3 4 -10 11 -15 16 -5 4 0 7 12 7 15 0 20 -4 15 -16z m77 6
c0 -5 -2 -10 -4 -10 -3 0 -8 5 -11 10 -3 6 -1 10 4 10 6 0 11 -4 11 -10z m103
-7 c-3 -7 -6 -13 -8 -13 -2 0 -5 6 -8 13 -3 8 1 14 8 14 7 0 11 -6 8 -14z
m101 2 c-4 -8 -8 -15 -10 -15 -2 0 -4 7 -4 15 0 8 4 15 10 15 5 0 7 -7 4 -15z
m190 0 c-4 -8 -7 -15 -9 -15 -2 0 -5 7 -9 15 -3 9 0 15 9 15 9 0 12 -6 9 -15z
m-740 -10 c-4 -8 -8 -15 -10 -15 -2 0 -4 7 -4 15 0 8 4 15 10 15 5 0 7 -7 4
-15z m802 -23 c-9 -8 -34 12 -29 24 4 12 8 11 18 -3 8 -10 12 -19 11 -21z
m166 6 c-8 -8 -9 -4 -5 13 4 13 8 18 11 10 2 -7 -1 -18 -6 -23z m118 7 c14
-18 13 -19 -1 -8 -9 7 -19 10 -23 6 -4 -4 -4 1 0 10 3 10 7 17 8 15 1 -2 8
-12 16 -23z m1350 15 c0 -5 -2 -10 -4 -10 -3 0 -8 5 -11 10 -3 6 -1 10 4 10 6
0 11 -4 11 -10z m70 6 c0 -3 -4 -8 -10 -11 -5 -3 -10 -1 -10 4 0 6 5 11 10 11
6 0 10 -2 10 -4z m58 -21 c-3 -3 -9 2 -12 12 -6 14 -5 15 5 6 7 -7 10 -15 7
-18z m-2438 0 c0 -8 -4 -15 -10 -15 -5 0 -7 7 -4 15 4 8 8 15 10 15 2 0 4 -7
4 -15z m93 2 c3 -8 -1 -14 -8 -14 -7 0 -11 6 -8 14 3 7 6 13 8 13 2 0 5 -6 8
-13z m92 -8 c-4 -5 -12 -9 -18 -8 -9 0 -8 2 1 6 6 2 9 10 6 15 -4 7 -2 8 5 4
6 -4 9 -12 6 -17z m289 5 c3 -8 2 -12 -4 -9 -6 3 -10 10 -10 16 0 14 7 11 14
-7z m289 3 c3 -7 -3 -13 -14 -14 -15 -1 -16 1 -6 12 15 18 14 18 20 2z m-933
-7 c0 -5 -5 -10 -11 -10 -5 0 -7 5 -4 10 3 6 8 10 11 10 2 0 4 -4 4 -10z
m2444 -6 c3 -8 2 -12 -4 -9 -6 3 -10 10 -10 16 0 14 7 11 14 -7z m-1594 -39
c0 -7 -30 -13 -34 -7 -3 4 4 9 15 9 10 1 19 0 19 -2z m83 -12 c-3 -7 -6 -13
-8 -13 -2 0 -5 6 -8 13 -3 8 1 14 8 14 7 0 11 -6 8 -14z m1335 -930 c-10 -2
-18 -8 -18 -13 0 -5 8 -14 18 -19 15 -9 16 -10 0 -11 -9 0 -19 -10 -21 -22 -2
-13 -5 -2 -6 25 -1 43 1 47 22 46 16 -1 18 -2 5 -6z m82 -39 c0 -41 -2 -45
-22 -42 -40 5 -38 88 2 88 17 0 20 -6 20 -46z m65 1 c0 -33 -3 -40 -20 -40
-15 0 -21 8 -23 28 -5 39 5 59 25 55 14 -2 18 -13 18 -43z m60 0 c0 -33 -3
-40 -20 -40 -15 0 -21 8 -23 28 -5 39 5 59 25 55 14 -2 18 -13 18 -43z m80 35
c3 -6 -1 -7 -9 -4 -20 8 -21 -10 -1 -26 21 -17 20 -52 -2 -48 -9 2 -18 9 -19
16 -1 7 0 8 3 2 2 -5 9 -10 14 -10 15 0 10 22 -8 35 -9 7 -14 19 -10 29 7 18
23 21 32 6z m113 -14 c2 -10 -6 -27 -19 -39 -19 -18 -22 -19 -16 -3 4 10 7 20
7 22 0 3 5 2 10 -1 6 -3 10 4 10 16 0 18 -2 19 -15 9 -15 -12 -22 0 -8 14 11
10 28 1 31 -18z m47 -6 c0 -13 -6 -24 -13 -26 -7 -1 -8 0 -2 3 5 2 10 13 10
23 0 10 -5 21 -10 23 -6 3 -5 4 2 3 7 -2 13 -13 13 -26z m-115 -50 c5 0 11 17
13 38 l4 37 -1 -40 c-1 -29 -6 -41 -18 -43 -15 -3 -18 4 -16 40 l1 43 4 -37
c2 -21 8 -38 13 -38z m241 45 l8 30 -2 -30 c-1 -20 -8 -31 -19 -33 -14 -3 -18
3 -17 30 l1 33 11 -30 11 -30 7 30z m69 -18 c0 -18 -2 -19 -10 -7 -13 20 -13
43 0 35 6 -3 10 -16 10 -28z m-2864 -120 c13 -15 24 -37 24 -49 0 -11 -21 -70
-47 -131 -52 -124 -97 -178 -162 -198 -23 -7 -41 -14 -41 -16 0 -8 40 -161 46
-177 5 -14 -5 -16 -75 -16 -75 0 -81 1 -86 23 -8 34 -35 168 -35 173 0 2 -13
4 -29 4 -31 0 -26 10 -92 -177 -7 -20 -16 -23 -58 -23 -27 0 -53 4 -56 10 -6
10 145 473 184 563 l21 48 191 -3 191 -3 24 -28z m641 21 c-2 -7 -17 -41 -32
-75 l-28 -63 -171 -2 -171 -3 -22 -45 -21 -45 149 -3 149 -3 -30 -59 -30 -59
-147 -3 -148 -3 -17 -35 c-30 -61 -33 -59 141 -62 l159 -3 -33 -72 -34 -73
-235 0 c-130 0 -236 4 -236 9 0 12 77 194 177 419 l85 192 250 0 c196 0 249
-3 245 -12z m595 -18 c15 -18 19 -34 15 -60 -3 -19 -59 -146 -125 -282 l-121
-248 -85 0 -86 0 35 70 c19 38 35 72 35 75 0 3 -54 5 -120 5 l-121 0 -36 -75
-35 -75 -83 0 -84 0 31 68 c96 212 219 452 248 486 56 63 69 66 303 63 l209
-2 20 -25z m668 25 c0 -3 -14 -36 -31 -75 l-32 -70 -99 0 c-93 0 -99 -1 -107
-22 -5 -13 -54 -117 -110 -233 l-100 -210 -86 -3 -86 -3 14 28 c8 15 24 48 35
73 11 25 54 115 96 200 42 85 76 158 76 162 0 5 -45 8 -100 8 l-100 0 37 75
37 75 278 0 c153 0 278 -2 278 -5z m200 0 c0 -6 -182 -427 -229 -527 l-40 -88
-77 0 c-68 0 -76 2 -71 18 3 9 59 134 124 277 66 143 125 275 132 293 l13 32
74 0 c41 0 74 -2 74 -5z m239 -173 c14 -95 28 -169 31 -165 4 5 33 83 66 175
l59 168 53 0 c34 0 52 -4 52 -12 0 -15 -162 -507 -185 -561 l-16 -38 -61 3
-62 3 -27 155 c-14 85 -28 164 -30 174 -2 11 -28 -41 -62 -125 -95 -233 -80
-214 -165 -216 -39 0 -72 1 -72 3 0 2 51 124 114 271 63 147 121 285 130 306
l15 38 68 -3 68 -3 24 -173z m499 168 l54 0 -7 -47 c-14 -99 -8 -93 -95 -93
l-78 0 -11 -44 c-6 -25 -11 -47 -11 -49 0 -2 32 -2 71 0 l71 3 -7 -58 c-4 -31
-9 -60 -12 -64 -2 -5 -39 -8 -83 -8 l-78 0 -11 -31 c-20 -58 -19 -59 80 -59
89 0 90 0 83 -22 -4 -13 -13 -45 -19 -73 l-11 -50 -152 -3 c-84 -1 -152 1
-152 6 0 4 25 82 55 172 31 91 72 219 91 285 19 66 37 126 40 134 3 11 18 12
66 7 33 -3 86 -6 116 -6z m-3344 -22 c8 -14 4 -37 -19 -105 l-30 -88 -54 -3
-53 -3 6 35 7 36 -68 0 -68 0 -33 -143 c-17 -78 -32 -147 -32 -153 0 -7 21
-11 58 -10 55 1 57 2 67 34 9 31 11 32 63 32 39 0 53 -3 50 -12 -3 -7 -15 -43
-27 -80 -12 -37 -31 -78 -42 -92 -20 -25 -25 -26 -124 -26 -119 0 -125 4 -125
83 0 56 65 385 85 434 37 87 29 84 187 81 121 -3 142 -5 152 -20z m2972 -703
c18 -28 17 -31 -44 -198 -20 -55 -48 -112 -63 -128 -27 -29 -28 -29 -144 -29
-64 0 -115 4 -113 9 2 4 34 88 73 184 l69 176 36 4 c19 2 65 4 102 5 62 2 69
0 84 -23z m-3062 -47 c3 -35 7 -80 9 -102 l2 -38 69 101 c67 99 70 101 107
101 22 0 39 -1 39 -3 0 -2 -29 -84 -65 -182 -36 -99 -65 -181 -65 -182 0 -2
-16 -3 -35 -3 -19 0 -35 4 -35 8 0 5 9 34 19 65 11 32 18 57 16 57 -2 0 -18
-20 -35 -45 -22 -32 -38 -45 -55 -45 -21 0 -25 6 -31 47 l-7 48 -17 -63 c-10
-34 -19 -65 -22 -67 -2 -2 -15 -1 -29 3 l-26 7 50 178 c49 175 50 177 78 177
26 0 28 -2 33 -62z m356 55 c0 -4 -30 -87 -67 -185 l-68 -178 -37 0 c-21 0
-38 4 -38 8 0 9 64 190 97 277 11 28 23 58 26 68 5 12 17 17 47 17 22 0 40 -3
40 -7z m348 -19 c2 -11 -6 -41 -17 -67 -20 -46 -21 -47 -67 -47 -45 0 -46 1
-40 25 l7 26 -63 -3 -62 -3 -37 -85 c-21 -47 -38 -88 -38 -92 -1 -5 28 -8 63
-8 55 0 64 3 69 20 4 16 14 20 51 20 25 0 46 -5 46 -10 0 -6 -11 -32 -24 -59
-34 -66 -60 -75 -183 -66 -102 7 -123 15 -123 46 0 10 23 75 50 146 35 90 59
136 80 156 31 28 31 28 158 25 120 -3 127 -4 130 -24z m363 16 c29 -16 24 -61
-16 -140 -34 -68 -70 -100 -110 -100 -19 0 -19 -26 0 -80 8 -23 15 -44 15 -47
0 -2 -26 -3 -57 -1 l-56 3 -16 60 c-22 83 -45 83 -85 -2 -29 -62 -30 -63 -71
-63 -23 0 -44 2 -47 5 -4 5 136 331 157 365 8 13 260 13 286 0z m420 -11 c25
-25 24 -28 -55 -189 -81 -166 -87 -170 -249 -170 -98 0 -124 3 -139 17 -10 9
-18 23 -18 31 0 8 23 65 52 126 93 199 102 206 271 206 105 0 119 -2 138 -21z
m233 -86 c11 -57 23 -103 26 -103 4 0 28 45 53 100 26 55 53 103 61 106 7 3
32 4 54 2 l41 -3 -91 -188 -92 -188 -50 3 -51 3 -20 102 c-11 57 -22 103 -25
103 -3 0 -29 -47 -58 -105 l-52 -105 -50 0 c-27 0 -50 2 -50 4 0 2 41 88 91
190 l91 187 52 -3 51 -3 19 -102z m396 101 c0 -10 -161 -348 -172 -361 -11
-14 -98 -18 -98 -5 0 4 39 89 87 190 l86 182 49 0 c26 0 48 -3 48 -6z m342
-35 c-17 -45 -49 -73 -195 -174 -47 -33 -86 -62 -87 -65 0 -3 38 -3 85 -1 47
1 85 1 85 -2 0 -2 -9 -25 -20 -51 l-21 -46 -154 0 c-101 0 -155 4 -155 10 0 6
9 28 20 49 14 29 50 60 145 126 69 48 128 91 131 96 3 5 -33 9 -80 9 -47 0
-86 2 -86 5 0 3 9 24 20 45 l20 40 154 0 154 0 -16 -41z m333 24 c-4 -10 -12
-30 -17 -45 -10 -28 -11 -28 -102 -28 -90 0 -93 -1 -104 -25 -7 -14 -12 -28
-12 -30 0 -3 36 -5 80 -5 44 0 80 -2 80 -5 0 -4 -7 -19 -15 -35 -15 -29 -17
-30 -95 -30 -78 0 -80 0 -95 -30 l-16 -30 91 0 c49 0 90 -4 90 -9 0 -5 -7 -25
-15 -44 l-15 -36 -140 -3 c-77 -2 -140 0 -140 4 0 4 28 69 61 145 34 76 70
157 80 181 l18 42 137 0 c126 0 136 -1 129 -17z m-2892 -485 c6 -18 -12 -80
-30 -99 -8 -10 -23 -15 -35 -11 -20 5 -41 -15 -32 -30 3 -4 18 -8 35 -8 31 0
32 -1 23 -24 -4 -11 -19 -16 -51 -16 l-45 0 7 36 c12 66 25 84 62 84 23 0 33
5 33 15 0 21 -27 30 -45 15 -22 -18 -30 -5 -17 25 10 21 19 25 51 25 23 0 41
-5 44 -12z m136 -4 c7 -6 -16 -90 -39 -141 -18 -42 -20 -43 -64 -43 -54 0 -55
3 -26 103 26 91 34 101 84 92 22 -3 42 -8 45 -11z m2871 4 c0 -27 -17 -37 -65
-40 -38 -2 -51 -7 -53 -20 -3 -15 4 -18 37 -18 23 0 41 -3 41 -7 -1 -21 -20
-32 -60 -35 -33 -2 -46 -8 -48 -20 -3 -15 4 -18 42 -18 50 0 51 -1 36 -31 -9
-16 -22 -19 -80 -19 -39 0 -70 2 -70 4 0 2 18 48 40 103 37 92 41 98 72 104
60 11 108 10 108 -3z m-2715 -8 c6 -9 -34 -133 -55 -169 -13 -23 -5 67 9 103
6 16 9 31 7 34 -10 9 -59 4 -66 -8 -5 -8 -9 -7 -14 5 -11 29 13 45 65 45 26 0
51 -4 54 -10z m166 -27 c1 -21 4 -48 7 -60 6 -21 11 -17 55 37 35 44 54 60 72
60 28 0 29 7 -26 -120 -29 -67 -41 -86 -59 -88 -24 -4 -24 2 -5 53 7 17 4 16
-21 -6 -32 -29 -54 -28 -54 1 0 34 -18 31 -30 -5 -8 -24 -18 -35 -31 -35 -18
0 -18 3 7 68 15 37 31 82 37 100 15 47 47 44 48 -5z m349 28 c0 -33 -14 -41
-71 -41 -32 0 -59 -2 -59 -4 0 -2 -3 -11 -6 -20 -5 -13 2 -16 40 -16 25 0 46
-3 46 -7 -1 -22 -20 -32 -64 -35 -69 -4 -74 -28 -7 -28 52 0 61 -9 42 -39 -7
-11 -28 -14 -83 -12 -40 1 -74 4 -76 6 -2 2 16 48 39 104 l41 101 79 0 c44 0
79 -4 79 -9z m189 0 c9 -6 11 -18 7 -35 -5 -21 -12 -26 -36 -26 -17 0 -30 5
-30 10 0 14 -54 12 -68 -2 -22 -22 -13 -28 37 -28 28 0 53 -5 56 -11 11 -16
-3 -55 -31 -88 -24 -29 -31 -31 -89 -31 -68 0 -91 14 -80 50 6 18 13 20 70 18
75 -3 95 15 22 20 -31 2 -50 8 -54 18 -7 19 25 92 46 104 20 12 132 12 150 1z
m111 -1 c0 -6 -7 -24 -15 -40 l-16 -30 46 0 c43 0 47 2 61 35 12 29 20 35 43
35 l30 0 -49 -102 c-41 -88 -52 -103 -74 -106 -30 -4 -32 7 -11 47 l14 29 -40
4 c-40 4 -42 2 -62 -39 -16 -32 -27 -43 -44 -43 -13 0 -23 4 -23 10 0 5 21 55
46 110 40 85 50 100 70 100 13 0 24 -5 24 -10z m949 -4 c10 -11 3 -34 -33
-110 -40 -86 -47 -96 -71 -96 -24 0 -26 3 -21 25 6 24 4 25 -34 25 -33 0 -42
-4 -52 -25 -8 -18 -19 -25 -40 -25 -15 0 -28 2 -28 4 0 12 90 184 101 193 13
11 51 17 135 21 17 1 37 -4 43 -12z m111 4 c0 -5 -16 -41 -34 -80 -38 -76 -35
-85 21 -78 24 3 33 14 67 86 35 74 42 82 67 82 l28 0 -16 -37 c-30 -74 -71
-148 -91 -166 -16 -15 -34 -17 -93 -15 -93 4 -95 12 -38 131 35 73 45 87 65
87 13 0 24 -4 24 -10z m353 -2 c5 -16 -21 -87 -41 -110 -8 -10 -24 -18 -35
-18 -13 0 -17 -5 -13 -16 3 -9 9 -27 12 -40 6 -22 3 -24 -25 -24 -32 0 -34 3
-45 53 -9 38 -22 34 -46 -13 -16 -31 -26 -40 -46 -40 -30 0 -32 -9 28 126 l42
94 82 0 c57 0 84 -4 87 -12z m71 -65 c-20 -43 -40 -90 -46 -105 -8 -22 -16
-28 -38 -28 l-28 0 46 105 c43 96 49 105 74 105 l27 0 -35 -77z m126 53 c0
-34 11 -86 19 -86 3 0 15 24 26 53 17 43 25 53 47 55 l27 3 -44 -103 c-37 -88
-47 -103 -68 -106 -22 -3 -26 1 -32 40 -13 85 -16 86 -46 20 -23 -52 -32 -62
-53 -62 l-25 0 46 105 c43 98 48 105 74 105 24 0 29 -4 29 -24z m-870 -6 c-8
-14 -21 -20 -45 -20 -34 0 -37 -3 -77 -85 -38 -76 -45 -85 -70 -85 l-28 0 40
80 c34 67 38 81 25 86 -8 4 -24 4 -35 1 -23 -6 -24 -3 -10 24 10 17 22 19 111
19 97 0 99 -1 89 -20z m-350 5 c0 -4 -7 -19 -15 -35 l-16 -30 36 0 c33 0 35
-2 25 -20 -8 -14 -21 -20 -46 -20 -29 0 -37 -5 -51 -35 -11 -22 -24 -35 -36
-35 -14 0 -17 4 -12 18 20 47 18 52 -14 52 -29 0 -31 2 -21 20 8 14 21 20 46
20 29 0 37 5 51 35 10 21 24 35 35 35 10 0 18 -2 18 -5z m-1346 -101 c3 -8 2
-12 -4 -9 -6 3 -10 10 -10 16 0 14 7 11 14 -7z m1341 -238 l952 -1 -35 -55
c-20 -30 -51 -80 -71 -111 l-35 -56 -164 -7 c-308 -12 -1987 4 -2012 19 -8 5
57 155 88 203 15 24 15 24 170 16 85 -4 583 -7 1107 -8z m-1115 -876 c0 -5 -4
-10 -10 -10 -5 0 -10 5 -10 10 0 6 5 10 10 10 6 0 10 -4 10 -10z m-155 -20
c10 -11 28 -20 41 -20 14 0 31 -12 44 -30 12 -16 17 -30 11 -30 -6 0 -16 9
-23 20 -7 11 -21 20 -31 20 -22 0 -43 -48 -27 -64 5 -5 10 -17 10 -25 -1 -14
-3 -13 -14 2 -20 26 -53 22 -60 -8 -8 -33 8 -63 36 -68 22 -3 22 -4 4 -12 -31
-14 -59 29 -52 78 4 24 2 45 -5 53 -7 9 -9 29 -6 51 9 54 40 68 72 33z m125 0
c0 -5 -4 -10 -10 -10 -5 0 -10 5 -10 10 0 6 5 10 10 10 6 0 10 -4 10 -10z m55
0 c3 -5 1 -10 -4 -10 -6 0 -11 5 -11 10 0 6 2 10 4 10 3 0 8 -4 11 -10z m-60
-40 c3 -5 1 -10 -4 -10 -6 0 -11 5 -11 10 0 6 2 10 4 10 3 0 8 -4 11 -10z
m753 -22 c3 -15 -4 -18 -42 -18 l-46 0 0 -45 c0 -38 -3 -45 -20 -45 -18 0 -20
7 -20 58 0 32 3 62 7 66 4 4 32 6 63 4 43 -2 56 -7 58 -20z m162 -54 l0 -64
-60 0 -60 0 0 68 0 67 60 -3 60 -4 0 -64z m-944 19 c62 -34 59 -30 45 -47 -6
-8 -22 -53 -36 -101 -31 -115 -48 -134 -87 -98 -24 21 -23 56 4 150 12 43 21
88 20 101 -1 12 0 22 2 22 2 0 25 -12 52 -27z m784 -178 l0 -66 -62 3 -63 3
-3 63 -3 62 66 0 65 0 0 -65z m164 -2 l-1 -58 -61 -3 c-51 -2 -62 0 -62 13 0
11 11 15 45 15 l45 0 0 45 c0 36 3 45 18 45 14 0 17 -9 16 -57z m1746 -208 c0
-103 -4 -165 -10 -165 -6 0 -10 62 -10 165 0 103 4 165 10 165 6 0 10 -62 10
-165z m277 135 c36 -71 -13 -171 -62 -130 -22 18 -20 118 2 142 22 24 44 19
60 -12z m93 11 c5 -11 10 -38 10 -61 0 -51 -15 -80 -41 -80 -22 0 -39 35 -39
80 0 69 44 108 70 61z m-204 -36 c1 -22 5 -47 8 -56 8 -19 -9 -69 -24 -69 -6
0 -13 7 -16 15 -4 8 -17 15 -30 15 -32 0 -31 26 1 91 32 63 59 65 61 4z m-308
19 c18 -12 22 -25 22 -65 0 -66 -13 -89 -50 -89 -51 0 -77 71 -49 134 10 22
20 28 49 35 3 0 16 -6 28 -15z m-130 -6 c19 -19 14 -28 -18 -28 -16 0 -30 -4
-30 -10 0 -5 6 -7 14 -4 16 6 56 -29 56 -50 0 -20 -39 -66 -56 -66 -8 0 -23 9
-34 20 -25 25 -27 95 -4 128 17 24 53 29 72 10z m-2938 -58 c0 -16 -4 -30 -8
-30 -5 0 -7 14 -4 30 2 17 6 30 8 30 2 0 4 -13 4 -30z m75 20 c-3 -5 -11 -10
-16 -10 -6 0 -7 5 -4 10 3 6 11 10 16 10 6 0 7 -4 4 -10z m3585 -44 c0 -54
-20 -91 -35 -65 -4 6 -1 16 6 21 11 7 11 11 2 15 -13 5 -18 65 -6 76 3 4 12 7
20 7 9 0 13 -16 13 -54z m-3543 38 c-3 -3 -12 -4 -19 -1 -8 3 -5 6 6 6 11 1
17 -2 13 -5z m181 -24 c4 -12 3 -13 -10 -3 -8 7 -18 10 -21 6 -4 -3 -7 -1 -7
6 0 17 32 10 38 -9z m47 10 c4 -6 1 -9 -7 -8 -9 2 -14 -10 -16 -36 -3 -32 -1
-38 12 -33 9 4 16 2 16 -4 0 -6 -8 -9 -17 -7 -28 5 -31 98 -4 98 5 0 13 -5 16
-10z m-311 -16 c3 -8 2 -12 -4 -9 -6 3 -10 10 -10 16 0 14 7 11 14 -7z m36 -5
c0 -5 -4 -9 -10 -9 -5 0 -10 7 -10 16 0 8 5 12 10 9 6 -3 10 -10 10 -16z m323
-11 l12 -33 6 35 c6 32 6 31 7 -15 1 -46 0 -48 -13 -31 -8 11 -16 25 -16 30
-1 6 -5 -2 -9 -19 -7 -27 -8 -25 -9 18 -1 55 5 60 22 15z m79 19 c-6 -6 -12
-28 -15 -47 -4 -34 -4 -34 -5 7 -1 23 -8 44 -14 46 -7 3 0 6 16 6 22 1 26 -2
18 -12z m55 -42 c10 -44 10 -45 -8 -29 -11 10 -19 12 -19 6 0 -7 -4 -12 -9
-12 -5 0 -4 17 1 40 6 22 14 40 18 40 3 0 11 -20 17 -45z m30 -22 c-2 -16 -4
-5 -4 22 0 28 2 40 4 28 2 -13 2 -35 0 -50z m74 42 c6 26 7 23 8 -17 1 -50
-12 -64 -25 -25 l-8 22 -7 -25 c-5 -19 -7 -13 -8 25 l0 50 16 -30 17 -30 7 30z
m77 5 c4 -13 3 -13 -10 -2 -10 8 -18 9 -22 3 -4 -6 3 -15 14 -21 27 -14 24
-55 -4 -55 -11 0 -22 7 -24 15 -4 13 -3 13 10 2 12 -10 18 -10 24 -1 4 7 -3
19 -16 29 -15 12 -21 23 -17 34 8 21 38 18 45 -4z m400 -22 c3 -22 -1 -28 -16
-28 -11 0 -23 -10 -27 -22 -7 -20 -9 -18 -12 16 -6 51 2 68 29 64 17 -2 24
-11 26 -30z m72 22 c0 -5 -7 -10 -15 -10 -8 0 -15 -4 -15 -10 0 -5 7 -10 15
-10 8 0 15 -4 15 -10 0 -5 -7 -10 -15 -10 -24 0 -17 -28 8 -33 15 -4 12 -5 -8
-4 -26 2 -30 6 -33 35 -2 19 -1 40 2 48 6 16 46 19 46 4z m77 2 c7 -4 11 -26
10 -50 l-1 -43 -18 23 -17 23 -10 -25 c-9 -22 -10 -20 -10 22 -1 41 6 54 29
57 3 0 10 -3 17 -7z m93 -2 c0 -5 -9 -10 -20 -10 -27 0 -25 -18 3 -30 l22 -9
-22 0 c-14 -1 -23 -9 -26 -23 -2 -13 -5 -2 -6 24 -1 41 2 47 22 51 12 2 23 5
25 6 1 0 2 -3 2 -9z m170 -22 c0 -9 -3 -9 -12 0 -23 23 -38 13 -38 -23 0 -28
4 -35 19 -35 11 0 22 6 24 13 3 7 6 6 6 -5 1 -18 -32 -33 -49 -23 -15 9 -13
92 3 98 16 6 47 -11 47 -25z m-107 15 c-13 -2 -23 -11 -23 -19 0 -8 10 -15 23
-15 l22 -2 -22 -4 c-28 -5 -30 -33 -3 -33 11 0 20 -5 20 -11 0 -6 -10 -9 -22
-7 -20 3 -23 10 -26 51 -3 46 -2 47 25 46 24 -2 24 -2 6 -6z m175 0 c-13 -3
-18 -16 -20 -46 l-1 -42 -4 40 c-3 22 -10 43 -16 47 -7 4 4 7 23 7 19 -1 27
-3 18 -6z m-1512 -30 c-7 -7 -26 7 -26 19 0 6 6 6 15 -2 9 -7 13 -15 11 -17z
m39 -1 c-3 -3 -11 0 -18 7 -9 10 -8 11 6 5 10 -3 15 -9 12 -12z m177 -14 c-9
-9 -15 -9 -24 1 -9 10 -9 12 -1 7 6 -3 15 -1 18 5 4 5 10 8 13 4 3 -3 0 -11
-6 -17z m-300 -53 c3 -14 1 -28 -3 -31 -5 -3 -9 9 -9 25 0 38 6 40 12 6z
m3594 9 c-3 -9 -6 -29 -6 -45 0 -16 -4 -29 -10 -29 -5 0 -10 16 -10 35 0 19
-4 35 -10 35 -5 0 -10 -12 -10 -27 0 -16 -5 -35 -10 -43 -8 -13 -10 -12 -10 4
0 19 0 19 -14 1 -12 -17 -14 -16 -21 24 -4 23 -4 45 -1 48 3 4 6 0 6 -8 0 -12
2 -11 11 1 8 11 12 12 16 3 3 -10 8 -9 20 2 20 21 57 20 49 -1z m-196 -2 c0
-4 -5 -13 -12 -20 -9 -9 -9 -12 1 -12 8 0 10 -7 6 -20 -4 -12 -2 -20 5 -20 6
0 8 -4 5 -10 -3 -5 -13 -10 -21 -10 -10 0 -14 12 -14 43 0 24 3 47 7 50 9 10
23 9 23 -1z m60 -1 c0 -6 -4 -12 -8 -15 -5 -3 -7 -18 -4 -34 2 -16 -1 -33 -7
-36 -7 -5 -11 5 -11 28 0 19 -5 38 -10 41 -6 4 -8 11 -5 16 8 12 45 12 45 0z
m-2970 -11 c0 -5 -4 -10 -10 -10 -5 0 -10 -19 -10 -42 0 -53 -6 -46 -12 15 -5
41 -3 47 13 47 11 0 19 -4 19 -10z m2831 -2 c0 -10 2 -10 6 0 11 27 23 10 23
-33 0 -49 -5 -54 -26 -27 -13 16 -14 16 -8 0 3 -10 1 -18 -5 -18 -6 0 -11 19
-11 45 0 25 5 45 10 45 6 0 10 -6 11 -12z m-2930 -18 c6 18 7 14 3 -15 -6 -40
-11 -52 -18 -44 -2 2 -6 22 -10 44 -5 35 -4 37 6 15 l11 -25 8 25z m36 -42
c-2 -13 -4 -3 -4 22 0 25 2 35 4 23 2 -13 2 -33 0 -45z m173 53 c0 -5 -8 -8
-17 -7 -14 1 -18 -7 -18 -29 0 -26 3 -30 25 -27 23 2 24 2 8 -14 -14 -14 -20
-15 -32 -4 -16 12 -22 71 -9 83 9 10 43 8 43 -2z m2349 -5 c7 -8 11 -30 9 -48
-2 -28 -7 -33 -28 -33 -22 0 -25 5 -28 39 -4 50 22 72 47 42z m71 -7 c0 12 5
21 10 21 6 0 10 -22 10 -50 0 -54 -5 -60 -26 -32 -13 16 -13 16 -14 0 0 -10
-4 -18 -10 -18 -5 0 -10 24 -10 53 l1 52 19 -24 c20 -23 20 -23 20 -2z m90 5
c0 -11 -6 -14 -17 -10 -17 6 -17 5 0 -8 31 -24 13 -79 -20 -58 -10 7 -16 70
-7 84 9 15 44 8 44 -8z m-3157 -9 c-3 -9 -8 -14 -10 -11 -3 3 -2 9 2 15 9 16
15 13 8 -4z m1025 -5 c4 -12 2 -13 -9 -2 -22 20 -29 14 -29 -28 0 -42 7 -48
29 -27 11 10 13 9 9 -3 -3 -8 -16 -15 -29 -15 -20 0 -25 6 -27 33 -2 19 -1 41
2 49 7 18 48 13 54 -7z m70 11 c8 -5 12 -23 10 -47 -3 -34 -6 -39 -28 -39 -21
0 -26 5 -28 33 -6 56 11 75 46 53z m1631 -5 c28 -34 -5 -97 -43 -83 -20 8 -23
83 -3 90 22 9 34 7 46 -7z m86 -33 c0 -46 -8 -54 -24 -25 -10 16 -10 16 -11 0
0 -9 -4 -20 -10 -23 -6 -4 -10 13 -10 45 0 50 1 51 28 48 25 -3 27 -7 27 -45z
m75 37 c0 -5 -4 -10 -10 -10 -5 0 -10 -16 -10 -35 0 -19 -4 -35 -10 -35 -5 0
-10 16 -10 35 0 19 -4 35 -10 35 -5 0 -10 5 -10 10 0 6 14 10 30 10 17 0 30
-4 30 -10z m40 -35 c0 -25 -4 -45 -10 -45 -5 0 -10 20 -10 45 0 25 5 45 10 45
6 0 10 -20 10 -45z m-1771 8 l13 -28 14 28 c8 15 17 27 19 27 3 0 4 -21 4 -47
-1 -41 -2 -44 -8 -18 -7 29 -7 29 -15 8 -9 -27 -23 -30 -29 -5 -4 13 -5 11 -6
-5 -2 -43 -21 -23 -21 22 0 51 11 58 29 18z m138 -20 c2 -34 -1 -43 -17 -48
-31 -10 -40 2 -40 51 0 43 1 45 27 42 24 -3 27 -8 30 -45z m43 2 c0 -25 -4
-45 -10 -45 -5 0 -10 20 -10 45 0 25 5 45 10 45 6 0 10 -20 10 -45z m77 -15
c3 0 2 11 -1 24 -3 14 -2 28 4 31 6 4 10 -13 10 -44 0 -28 -2 -51 -5 -51 -3 0
-14 15 -25 33 l-20 32 0 -27 c0 -16 -4 -28 -10 -28 -11 0 -14 73 -3 84 4 3 15
-7 26 -24 10 -16 21 -30 24 -30z m88 6 c8 -26 10 -46 5 -46 -6 0 -10 7 -10 15
0 21 -27 19 -40 -2 -9 -15 -10 -14 -6 9 9 41 26 81 32 75 3 -3 12 -26 19 -51z
m68 47 c-8 -3 -13 -23 -13 -49 0 -28 -4 -43 -10 -39 -5 3 -10 24 -10 45 0 21
-6 41 -12 43 -7 3 3 5 22 5 19 0 29 -2 23 -5z m135 -41 c3 -46 -16 -65 -47
-45 -32 21 -14 96 22 91 18 -2 23 -11 25 -46z m59 16 l17 -33 7 30 c6 26 7 23
8 -17 0 -27 -1 -48 -4 -48 -2 0 -12 15 -22 33 l-17 32 -7 -35 c-6 -31 -7 -30
-8 18 0 28 1 52 4 52 2 0 12 -15 22 -32z m883 6 c0 -17 -6 -28 -20 -31 -11 -3
-20 -12 -20 -19 0 -8 -4 -14 -10 -14 -5 0 -10 20 -10 45 0 43 1 45 30 45 26 0
30 -4 30 -26z m-1030 -30 c0 -27 -4 -43 -10 -39 -5 3 -10 24 -10 46 0 21 5 39
10 39 6 0 10 -21 10 -46z m2050 26 c0 -5 -4 -10 -10 -10 -5 0 -10 5 -10 10 0
6 5 10 10 10 6 0 10 -4 10 -10z"/>
<path d="M5290 4535 c0 -19 5 -35 10 -35 6 0 10 16 10 35 0 19 -4 35 -10 35
-5 0 -10 -16 -10 -35z"/>
<path d="M5352 4539 c2 -19 8 -33 13 -31 15 3 12 55 -3 60 -10 3 -13 -5 -10
-29z"/>
<path d="M5420 4534 c0 -21 4 -33 10 -29 6 3 10 19 10 36 0 16 -4 29 -10 29
-5 0 -10 -16 -10 -36z"/>
<path d="M2742 4282 l-63 -3 -20 -45 c-10 -25 -19 -50 -19 -55 0 -5 40 -9 90
-9 l89 0 21 46 c27 62 26 73 -7 71 -16 -1 -56 -3 -91 -5z"/>
<path d="M3830 4273 c-5 -10 -27 -53 -48 -95 l-38 -78 121 0 121 0 42 85 c23
47 42 90 42 95 0 6 -46 10 -115 10 -99 0 -116 -2 -125 -17z"/>
<path d="M5280 3543 c-19 -48 -37 -91 -39 -96 -1 -4 20 -7 49 -5 l52 3 33 93
33 92 -46 0 -47 0 -35 -87z"/>
<path d="M3255 3600 c-24 -46 -20 -50 45 -50 57 0 61 2 80 32 10 17 17 35 14
40 -3 4 -32 8 -64 8 -56 0 -60 -2 -75 -30z"/>
<path d="M3665 3622 c-10 -6 -95 -177 -95 -188 0 -3 33 -4 73 -2 l72 3 42 85
c23 47 42 91 43 98 0 13 -117 18 -135 4z"/>
<path d="M2355 3128 c-12 -41 -12 -53 -3 -60 21 -13 41 -4 49 22 4 14 12 40
18 58 9 31 9 32 -19 32 -27 0 -31 -5 -45 -52z"/>
<path d="M2561 3084 c0 -11 3 -14 6 -6 3 7 2 16 -1 19 -3 4 -6 -2 -5 -13z"/>
<path d="M4225 3140 c-21 -40 -20 -40 25 -40 34 0 42 4 55 30 21 40 20 40 -25
40 -34 0 -42 -4 -55 -30z"/>
<path d="M4700 3150 c-12 -22 -9 -23 35 -20 28 2 44 14 45 33 0 4 -16 7 -35 7
-24 0 -37 -6 -45 -20z"/>
<path d="M2670 2751 c0 -61 0 -61 29 -61 35 0 43 18 33 75 -6 34 -11 40 -35
43 -27 3 -27 3 -27 -57z m48 26 c2 -12 -3 -17 -17 -17 -12 0 -21 6 -21 13 0
31 32 34 38 4z m-1 -43 c8 -21 -13 -42 -28 -27 -13 13 -5 43 11 43 6 0 13 -7
17 -16z"/>
<path d="M2772 2759 c-14 -61 -15 -80 -1 -56 12 21 39 23 39 2 0 -8 4 -15 9
-15 5 0 2 27 -6 60 -9 33 -19 60 -23 60 -3 0 -12 -23 -18 -51z m28 -15 c0 -8
-4 -12 -10 -9 -5 3 -10 10 -10 16 0 5 5 9 10 9 6 0 10 -7 10 -16z"/>
<path d="M2857 2803 c-15 -15 -5 -44 18 -55 14 -6 25 -19 25 -30 0 -21 -20
-24 -39 -5 -11 10 -13 9 -9 -2 7 -25 35 -36 52 -22 25 21 19 49 -15 66 -26 14
-28 19 -18 32 12 13 14 13 26 -3 7 -10 16 -15 19 -11 4 4 1 13 -6 22 -13 15
-42 20 -53 8z"/>
<path d="M2953 2750 c0 -36 2 -50 4 -32 2 17 2 47 0 65 -2 17 -4 3 -4 -33z"/>
<path d="M3003 2803 c-18 -7 -17 -97 2 -113 20 -17 49 -8 53 15 2 15 1 17 -6
7 -18 -27 -46 -9 -49 31 -4 41 16 59 42 37 12 -10 15 -10 15 3 0 21 -29 32
-57 20z"/>
<path d="M3148 2799 c-13 -7 -18 -23 -18 -52 0 -45 13 -67 41 -67 19 0 45 27
35 37 -3 4 -12 -2 -20 -12 -20 -27 -36 -9 -36 41 0 37 3 44 19 44 11 0 21 -6
24 -12 2 -7 7 -10 11 -7 7 7 -20 39 -32 39 -4 0 -15 -5 -24 -11z"/>
<path d="M3241 2738 c1 -35 4 -51 6 -35 5 34 26 35 42 1 6 -15 14 -24 17 -21
3 3 1 14 -5 25 -7 13 -7 22 0 29 6 6 9 21 7 34 -2 19 -10 25 -35 27 l-33 3 1
-63z m49 27 c0 -18 -5 -25 -20 -25 -15 0 -20 7 -20 25 0 18 5 25 20 25 15 0
20 -7 20 -25z"/>
<path d="M3345 2788 c-2 -7 -3 -33 -2 -58 2 -44 3 -45 37 -46 26 -1 28 -1 8 3
-21 3 -28 10 -28 28 0 18 6 25 28 28 l27 4 -27 2 c-21 1 -28 6 -28 20 0 14 8
21 28 24 25 4 24 4 -6 6 -18 0 -34 -4 -37 -11z"/>
<path d="M3457 2743 c-15 -52 -16 -88 -1 -49 8 21 40 21 48 0 4 -9 9 -14 12
-11 8 8 -25 117 -35 117 -4 0 -15 -26 -24 -57z m29 -10 c-10 -10 -19 5 -10 18
6 11 8 11 12 0 2 -7 1 -15 -2 -18z"/>
<path d="M3543 2793 c13 -4 17 -15 17 -59 0 -30 5 -54 10 -54 6 0 10 24 10 54
0 44 4 55 18 59 9 3 -3 5 -28 5 -25 0 -37 -2 -27 -5z"/>
<path d="M3640 2740 c0 -33 4 -60 10 -60 6 0 10 27 10 60 0 33 -4 60 -10 60
-6 0 -10 -27 -10 -60z"/>
<path d="M3690 2740 c0 -33 4 -60 10 -60 6 0 10 19 10 43 l0 42 26 -42 c14
-24 29 -43 35 -43 5 0 9 27 9 60 0 33 -4 60 -10 60 -5 0 -10 -19 -10 -42 l0
-43 -26 43 c-14 23 -29 42 -35 42 -5 0 -9 -27 -9 -60z"/>
<path d="M3810 2740 l0 -60 38 1 c30 2 32 3 10 6 -33 5 -41 43 -9 43 11 0 23
5 26 10 4 6 -5 10 -19 10 -16 0 -26 6 -26 15 0 8 9 15 19 15 11 0 23 5 26 10
4 6 -8 10 -29 10 l-36 0 0 -60z"/>
<path d="M3967 2793 c-17 -17 -5 -45 23 -56 18 -7 30 -19 30 -29 0 -23 -29
-23 -46 0 -12 16 -13 16 -14 0 0 -25 35 -41 60 -28 30 16 25 47 -10 65 -32 16
-37 29 -18 41 6 4 17 -1 24 -11 16 -21 30 -14 21 10 -6 15 -57 21 -70 8z"/>
<path d="M4065 2790 c3 -5 13 -10 21 -10 10 0 14 -13 14 -50 0 -30 4 -50 11
-50 7 0 10 18 7 50 -2 34 1 50 9 50 6 0 15 5 18 10 4 6 -12 10 -40 10 -28 0
-44 -4 -40 -10z"/>
<path d="M4172 2740 c-10 -33 -15 -60 -10 -60 5 0 11 7 14 15 8 20 40 19 48
-1 4 -9 9 -14 12 -11 8 8 -25 117 -35 117 -5 0 -18 -27 -29 -60z m38 -1 c0 -5
-4 -9 -10 -9 -5 0 -10 7 -10 16 0 8 5 12 10 9 6 -3 10 -10 10 -16z"/>
<path d="M4277 2793 c-4 -3 -7 -28 -7 -55 0 -41 3 -50 23 -57 12 -5 30 -5 40
1 18 9 24 38 7 38 -5 0 -10 -7 -10 -15 0 -8 -9 -15 -20 -15 -17 0 -20 7 -20
44 0 50 16 68 36 41 16 -21 30 -14 21 10 -6 15 -57 21 -70 8z"/>
<path d="M4380 2740 c0 -33 4 -60 10 -60 6 0 10 12 10 28 l1 27 20 -27 c28
-38 46 -35 18 3 l-22 31 22 29 c27 36 10 39 -18 3 l-21 -27 0 27 c0 14 -4 26
-10 26 -6 0 -10 -27 -10 -60z"/>
<path d="M2576 1754 c-21 -76 -24 -99 -15 -111 26 -31 43 -9 70 87 l26 95 -21
12 c-12 7 -24 12 -27 13 -3 0 -18 -43 -33 -96z m41 -33 c-9 -43 -26 -81 -37
-81 -13 0 -13 35 0 82 8 27 15 36 26 31 11 -4 14 -14 11 -32z"/>
<path d="M5560 1555 c0 -33 4 -45 13 -42 7 2 12 20 12 42 0 22 -5 40 -12 43
-9 2 -13 -10 -13 -43z"/>
<path d="M5667 1603 c-10 -10 -8 -81 2 -87 18 -12 29 56 13 82 -5 7 -11 9 -15
5z"/>
<path d="M5450 1544 c0 -8 5 -12 10 -9 6 3 10 10 10 16 0 5 -4 9 -10 9 -5 0
-10 -7 -10 -16z"/>
<path d="M5147 1574 c-4 -4 -7 -25 -7 -46 0 -32 3 -39 18 -36 13 2 17 13 17
42 0 37 -13 55 -28 40z"/>
<path d="M5012 1504 c4 -21 22 -23 26 -1 2 10 -3 17 -13 17 -10 0 -15 -6 -13
-16z"/>
<path d="M5750 1524 c0 -8 5 -12 10 -9 6 3 10 10 10 16 0 5 -4 9 -10 9 -5 0
-10 -7 -10 -16z"/>
<path d="M3185 1501 c-8 -15 3 -31 21 -31 9 0 14 7 12 17 -4 20 -24 28 -33 14z"/>
<path d="M3340 1485 c0 -8 9 -15 20 -15 11 0 20 7 20 15 0 8 -9 15 -20 15 -11
0 -20 -7 -20 -15z"/>
<path d="M5030 1345 c0 -14 5 -25 10 -25 6 0 10 11 10 25 0 14 -4 25 -10 25
-5 0 -10 -11 -10 -25z"/>
<path d="M3122 1338 c2 -21 8 -33 18 -33 10 0 16 12 18 33 3 27 0 32 -18 32
-18 0 -21 -5 -18 -32z"/>
<path d="M4750 1340 c0 -16 5 -30 10 -30 6 0 10 14 10 30 0 17 -4 30 -10 30
-5 0 -10 -13 -10 -30z"/>
<path d="M4840 1360 c0 -5 5 -10 10 -10 6 0 10 5 10 10 0 6 -4 10 -10 10 -5 0
-10 -4 -10 -10z"/>
<path d="M3310 1355 c0 -8 7 -15 15 -15 8 0 15 7 15 15 0 8 -7 15 -15 15 -8 0
-15 -7 -15 -15z"/>
<path d="M3310 1316 c0 -10 9 -16 21 -16 24 0 21 23 -4 28 -10 2 -17 -3 -17
-12z"/>
<path d="M3536 1341 c-4 -7 -5 -15 -2 -18 9 -9 19 4 14 18 -4 11 -6 11 -12 0z"/>
<path d="M3727 1364 c-4 -4 -7 -23 -7 -41 0 -27 4 -34 18 -31 12 2 17 13 17
37 0 33 -13 49 -28 35z"/>
<path d="M4670 1356 c0 -9 5 -16 10 -16 6 0 10 4 10 9 0 6 -4 13 -10 16 -5 3
-10 -1 -10 -9z"/>
<path d="M2096 6382 c-4 -7 -40 -242 -51 -337 -2 -22 -6 -92 -9 -155 l-4 -115
14 80 c8 44 30 170 50 280 19 110 38 212 41 228 4 22 2 27 -15 27 -12 0 -23
-3 -26 -8z"/>
<path d="M2444 6113 c-28 -4 -33 -10 -48 -55 -16 -51 -13 -78 5 -45 12 21 49
23 49 2 0 -32 18 -13 34 35 15 47 15 72 -2 68 -4 0 -21 -3 -38 -5z m26 -38 c0
-9 -9 -15 -25 -15 -24 0 -32 10 -18 23 12 13 43 7 43 -8z"/>
<path d="M2515 6108 c-3 -7 -11 -32 -19 -55 l-15 -43 44 0 c24 0 47 5 50 10 4
6 -9 10 -31 10 -43 0 -36 16 9 22 15 2 27 8 27 13 -1 6 -12 9 -25 7 -38 -5
-29 15 10 22 52 10 53 26 0 26 -27 0 -47 -5 -50 -12z"/>
<path d="M2615 6097 c-8 -13 -18 -37 -21 -55 l-6 -32 44 0 c41 0 68 13 68 32
0 5 -18 5 -40 2 -43 -7 -49 1 -30 37 11 20 54 26 65 9 8 -13 25 -3 25 16 0 10
-12 14 -45 14 -35 0 -48 -5 -60 -23z"/>
<path d="M2320 6095 c0 -8 5 -15 11 -15 6 0 8 -9 5 -20 -3 -11 -9 -29 -12 -40
-3 -11 -1 -20 5 -20 6 0 15 18 22 39 7 24 19 41 30 44 34 9 20 27 -21 27 -29
0 -40 -4 -40 -15z"/>
<path d="M2636 5952 c-8 -14 -126 -330 -162 -437 -23 -66 -32 -109 -28 -127 6
-29 24 -39 24 -14 0 8 30 96 66 195 55 150 70 180 88 183 16 2 29 24 58 93 21
50 37 96 38 103 0 14 -75 17 -84 4z"/>
<path d="M2332 5943 c-44 -3 -52 -7 -48 -21 3 -9 8 -30 12 -46 l7 -29 113 7
c63 4 114 4 114 0 0 -4 -27 -86 -60 -184 -53 -154 -59 -180 -50 -205 11 -28
14 -22 59 110 27 77 67 189 90 249 22 60 41 113 41 117 0 9 -166 9 -278 2z"/>
<path d="M2347 5833 c-34 -4 -37 -7 -31 -26 20 -66 21 -67 69 -67 25 0 45 -4
45 -8 0 -5 -9 -35 -20 -67 -21 -62 -26 -120 -11 -130 5 -3 30 59 56 137 26 78
49 148 52 155 5 13 -65 16 -160 6z"/>
<path d="M2034 1860 c1 -33 4 -60 9 -60 10 0 9 92 -1 108 -5 7 -8 -14 -8 -48z"/>
<path d="M5288 813 c7 -3 16 -2 19 1 4 3 -2 6 -13 5 -11 0 -14 -3 -6 -6z"/>
<path d="M5168 803 c6 -2 18 -2 25 0 6 3 1 5 -13 5 -14 0 -19 -2 -12 -5z"/>
<path d="M4898 793 c7 -3 16 -2 19 1 4 3 -2 6 -13 5 -11 0 -14 -3 -6 -6z"/>
</g>
</svg>
